<svg width="512" height="326" viewBox="0 0 512 326" fill="none" xmlns="http://www.w3.org/2000/svg">
    <path d="M318.2 137.9L316.6 130.9H160V195H250.7C241.3 240 202.3 258.6 166.6 258.6C140.6 258.6 116.4 250.8 98.3 233.3C79.7 215.2 69.4 190.2 69.4 162.9C69.4 135.8 79.2 111.1 97 93.3C114.7 75.6 139 67.9 165.7 67.9C196.2 67.9 215.6 81.7 223.8 89L271.8 41.3C258.3 29.6 221.5 0 164.1 0C119.8 0 77.4 16.8 46.4 47.8C15.9 78.3 0 122.2 0 163C0 203.8 15 245.6 44.6 276.3C76.3 309 121.2 326 167.5 326C209.6 326 249.4 309.5 277.8 279.7C305.8 250.3 320.2 209.6 320.2 167C320.1 149 318.3 138.3 318.2 137.9Z" fill="#3376F6"/>
    <path d="M512 131H455V74H414V131H357V172H414V229H455V172H512V131Z" fill="#3376F6"/>
</svg>
