<svg width="154" height="73" viewBox="0 0 154 73" fill="none" xmlns="http://www.w3.org/2000/svg">
<path fill-rule="evenodd" clip-rule="evenodd" d="M36.0379 0.924072L-4.74026e-05 36.9621L36.0379 73L72.0759 36.9621L36.0379 0.924072ZM69.559 36.9621L36.0379 70.4831L2.51691 36.9621L36.0379 3.44103L69.559 36.9621Z" fill="#DBECFE"/>
<path d="M36.7043 68.6019L34.7081 64.2216H19.9606L18.0052 68.6019H17.557V70.9209H37.1931V68.6019H36.7043Z" fill="url(#paint0_angular_513_195)"/>
<path d="M28.4682 2.02728L27.3232 0L26.3054 2.02728L25.8601 3.67445L26.1146 4.24462L25.6693 5.76508L25.0968 6.90543L25.5421 7.85571L24.4607 8.99606V10.0731V11.0233L18.9264 15.268L20.3895 16.4083L21.0256 16.5984V19.5759L18.4811 21.7299L20.3895 22.8703H33.748L36.0381 21.4132L33.4936 19.5759V16.4083H34.1933L35.5292 15.0145L30.313 11.0233V10.0731V8.99606L29.2316 7.85571L29.6133 6.90543L29.2316 5.76508L28.4682 4.24462L28.8499 3.67445L28.4682 2.02728Z" fill="url(#paint1_angular_513_195)"/>
<path d="M33.7826 25.9142V22.8702H20.7763V26.1678L18.4811 27.88L19.9475 29.3386H34.8027L36.269 27.88L33.7826 25.9142Z" fill="url(#paint2_angular_513_195)"/>
<path d="M33.7826 32.3826V29.3386H20.7763V32.6362L18.4811 34.3484L19.9475 35.807H34.8027L36.269 34.3484L33.7826 32.3826Z" fill="url(#paint3_angular_513_195)"/>
<path d="M33.7826 38.8509V35.807H20.7763V39.1046L18.4811 40.8168L19.9475 42.2754H34.8027L36.269 40.8168L33.7826 38.8509Z" fill="url(#paint4_angular_513_195)"/>
<path d="M33.7826 45.3193V42.2754H20.7763V45.573L18.4811 47.2852L19.9475 48.7437H34.8027L36.269 47.2852L33.7826 45.3193Z" fill="url(#paint5_angular_513_195)"/>
<path d="M33.7826 51.7876V48.7437H20.7763V52.0412L18.4811 53.7535L19.9475 55.212H34.8027L36.269 53.7535L33.7826 51.7876Z" fill="url(#paint6_angular_513_195)"/>
<path d="M33.7826 59.4518V55.212H20.7763V59.8051L18.4811 62.19L19.9475 64.2215H34.8027L36.269 62.19L33.7826 59.4518Z" fill="url(#paint7_angular_513_195)"/>
<path d="M36.7043 68.6019L34.7081 64.2216H19.9606L18.0052 68.6019H17.557V70.9209H37.1931V68.6019H36.7043Z" fill="url(#paint8_angular_513_195)"/>
<path d="M28.4682 2.02728L27.3232 0L26.3054 2.02728L25.8601 3.67445L26.1146 4.24462L25.6693 5.76508L25.0968 6.90543L25.5421 7.85571L24.4607 8.99606V10.0731V11.0233L18.9264 15.268L20.3895 16.4083L21.0256 16.5984V19.5759L18.4811 21.7299L20.3895 22.8703H33.748L36.0381 21.4132L33.4936 19.5759V16.4083H34.1933L35.5292 15.0145L30.313 11.0233V10.0731V8.99606L29.2316 7.85571L29.6133 6.90543L29.2316 5.76508L28.4682 4.24462L28.8499 3.67445L28.4682 2.02728Z" fill="url(#paint9_angular_513_195)"/>
<path d="M33.7826 25.9142V22.8702H20.7763V26.1678L18.4811 27.88L19.9475 29.3386H34.8027L36.269 27.88L33.7826 25.9142Z" fill="url(#paint10_angular_513_195)"/>
<path d="M33.7826 32.3826V29.3386H20.7763V32.6362L18.4811 34.3484L19.9475 35.807H34.8027L36.269 34.3484L33.7826 32.3826Z" fill="url(#paint11_angular_513_195)"/>
<path d="M33.7826 45.3193V42.2754H20.7763V45.573L18.4811 47.2852L19.9475 48.7437H34.8027L36.269 47.2852L33.7826 45.3193Z" fill="url(#paint12_angular_513_195)"/>
<path d="M33.7826 51.7876V48.7437H20.7763V52.0412L18.4811 53.7535L19.9475 55.212H34.8027L36.269 53.7535L33.7826 51.7876Z" fill="url(#paint13_angular_513_195)"/>
<path d="M28.4682 2.02728L27.3232 0L26.3054 2.02728L25.8601 3.67445L26.1146 4.24462L25.6693 5.76508L25.0968 6.90543L25.5421 7.85571L24.4607 8.99606V10.0731V11.0233L18.9264 15.268L20.3895 16.4083L21.0256 16.5984V19.5759L18.4811 21.7299L20.3895 22.8703H33.748L36.0381 21.4132L33.4936 19.5759V16.4083H34.1933L35.5292 15.0145L30.313 11.0233V10.0731V8.99606L29.2316 7.85571L29.6133 6.90543L29.2316 5.76508L28.4682 4.24462L28.8499 3.67445L28.4682 2.02728Z" fill="url(#paint14_linear_513_195)"/>
<path d="M33.7826 25.9142V22.8702H20.7763V26.1678L18.4811 27.88L19.9475 29.3386H34.8027L36.269 27.88L33.7826 25.9142Z" fill="url(#paint15_linear_513_195)"/>
<path d="M33.7826 32.3826V29.3386H20.7763V32.6362L18.4811 34.3484L19.9475 35.807H34.8027L36.269 34.3484L33.7826 32.3826Z" fill="url(#paint16_linear_513_195)"/>
<path d="M33.7826 38.8509V35.807H20.7763V39.1046L18.4811 40.8168L19.9475 42.2754H34.8027L36.269 40.8168L33.7826 38.8509Z" fill="url(#paint17_linear_513_195)"/>
<path d="M33.7826 45.3193V42.2754H20.7763V45.573L18.4811 47.2852L19.9475 48.7437H34.8027L36.269 47.2852L33.7826 45.3193Z" fill="url(#paint18_linear_513_195)"/>
<path d="M33.7826 51.7876V48.7437H20.7763V52.0412L18.4811 53.7535L19.9475 55.212H34.8027L36.269 53.7535L33.7826 51.7876Z" fill="url(#paint19_linear_513_195)"/>
<path d="M33.7826 59.4518V55.212H20.7763V59.8051L18.4811 62.19L19.9475 64.2215H34.8027L36.269 62.19L33.7826 59.4518Z" fill="url(#paint20_linear_513_195)"/>
<path fill-rule="evenodd" clip-rule="evenodd" d="M36.0379 0.924072L-4.74026e-05 36.9621L36.0379 73L72.0759 36.9621L36.0379 0.924072ZM69.559 36.9621L36.0379 70.4831L2.51691 36.9621L36.0379 3.44103L69.559 36.9621Z" fill="url(#paint21_linear_513_195)"/>
<path d="M36.7043 68.6019L34.7081 64.2216H19.9606L18.0052 68.6019H17.557V70.9209H37.1931V68.6019H36.7043Z" fill="url(#paint22_linear_513_195)"/>
<path d="M28.4682 2.02728L27.3232 0L26.3054 2.02728L25.8601 3.67445L26.1146 4.24462L25.6693 5.76508L25.0968 6.90543L25.5421 7.85571L24.4607 8.99606V10.0731V11.0233L18.9264 15.268L20.3895 16.4083L21.0256 16.5984V19.5759L18.4811 21.7299L20.3895 22.8703H33.748L36.0381 21.4132L33.4936 19.5759V16.4083H34.1933L35.5292 15.0145L30.313 11.0233V10.0731V8.99606L29.2316 7.85571L29.6133 6.90543L29.2316 5.76508L28.4682 4.24462L28.8499 3.67445L28.4682 2.02728Z" fill="url(#paint23_linear_513_195)"/>
<path d="M33.7826 25.9142V22.8702H20.7763V26.1678L18.4811 27.88L19.9475 29.3386H34.8027L36.269 27.88L33.7826 25.9142Z" fill="url(#paint24_linear_513_195)"/>
<path d="M33.7826 32.3826V29.3386H20.7763V32.6362L18.4811 34.3484L19.9475 35.807H34.8027L36.269 34.3484L33.7826 32.3826Z" fill="url(#paint25_linear_513_195)"/>
<path d="M33.7826 38.8509V35.807H20.7763V39.1046L18.4811 40.8168L19.9475 42.2754H34.8027L36.269 40.8168L33.7826 38.8509Z" fill="url(#paint26_linear_513_195)"/>
<path d="M33.7826 45.3193V42.2754H20.7763V45.573L18.4811 47.2852L19.9475 48.7437H34.8027L36.269 47.2852L33.7826 45.3193Z" fill="url(#paint27_linear_513_195)"/>
<path d="M33.7826 51.7876V48.7437H20.7763V52.0412L18.4811 53.7535L19.9475 55.212H34.8027L36.269 53.7535L33.7826 51.7876Z" fill="url(#paint28_linear_513_195)"/>
<path d="M88.8279 60.3086C88.8279 59.9658 89.0264 59.6879 89.2712 59.6879H107.005C107.25 59.6879 107.449 59.9658 107.449 60.3086V60.9292C107.449 61.272 107.25 61.5499 107.005 61.5499H89.2712C89.0264 61.5499 88.8279 61.272 88.8279 60.9292V60.3086Z" fill="#007FFF"/>
<path d="M46 50.6506H46.8541L47.7154 47.7136C47.8964 47.1247 48.0556 46.5211 48.2149 45.9101H48.2438C48.4103 46.5137 48.5695 47.1247 48.7505 47.7136L49.6046 50.6506H50.4949L48.736 45.2329H47.7589L46 50.6506ZM46.9916 49.1122H49.4815V48.4423H46.9916V49.1122Z" fill="white"/>
<path d="M52.3157 50.7537C52.6125 50.7537 52.8803 50.6727 53.1047 50.5991L52.9527 49.9734C52.8296 50.025 52.6631 50.0765 52.5256 50.0765C52.113 50.0765 51.9393 49.8188 51.9393 49.3404V47.2793H52.9816V46.6021H51.9393V45.4832H51.2445L51.1504 46.6021L50.5279 46.6462V47.2793H51.1069V49.333C51.1069 50.1795 51.4254 50.7537 52.3157 50.7537Z" fill="white"/>
<path d="M55.2976 50.7537C56.282 50.7537 57.1723 49.9734 57.1723 48.6337C57.1723 47.2793 56.282 46.499 55.2976 46.499C54.306 46.499 53.423 47.2793 53.423 48.6337C53.423 49.9734 54.306 50.7537 55.2976 50.7537ZM55.2976 50.0544C54.6679 50.0544 54.2843 49.4876 54.2843 48.6337C54.2843 47.7725 54.6679 47.2057 55.2976 47.2057C55.9201 47.2057 56.3182 47.7725 56.3182 48.6337C56.3182 49.4876 55.9201 50.0544 55.2976 50.0544Z" fill="white"/>
<path d="M58.1512 50.6506H58.9908V47.7798C59.3093 47.4118 59.6133 47.2351 59.8811 47.2351C60.3371 47.2351 60.547 47.5075 60.547 48.2141V50.6506H61.3794V47.7798C61.7123 47.4118 62.0018 47.2351 62.2769 47.2351C62.7256 47.2351 62.9355 47.5075 62.9355 48.2141V50.6506H63.7679V48.1037C63.7679 47.0805 63.3843 46.499 62.5519 46.499C62.0525 46.499 61.6472 46.8229 61.2491 47.2425C61.0826 46.7787 60.7496 46.499 60.1561 46.499C59.6639 46.499 59.2658 46.8008 58.9256 47.1689H58.9039L58.8315 46.6021H58.1512V50.6506Z" fill="white"/>
<path d="M64.9793 50.6506H65.8189V46.6021H64.9793V50.6506ZM65.3991 45.8439C65.7031 45.8439 65.9202 45.6451 65.9202 45.336C65.9202 45.0342 65.7031 44.8354 65.3991 44.8354C65.0879 44.8354 64.8852 45.0342 64.8852 45.336C64.8852 45.6451 65.0879 45.8439 65.3991 45.8439Z" fill="white"/>
<path d="M68.6858 50.7537C69.1491 50.7537 69.6195 50.577 69.9815 50.2531L69.6413 49.6863C69.4024 49.8925 69.1056 50.0544 68.7727 50.0544C68.1068 50.0544 67.6508 49.4876 67.6508 48.6337C67.6508 47.7725 68.1213 47.2057 68.8016 47.2057C69.0694 47.2057 69.2938 47.3235 69.511 47.5148L69.9163 46.9701C69.634 46.7051 69.2649 46.499 68.7582 46.499C67.7087 46.499 66.7894 47.2793 66.7894 48.6337C66.7894 49.9734 67.6146 50.7537 68.6858 50.7537Z" fill="white"/>
<path d="M72.5018 50.6506H73.3487V48.3246H75.3175V47.6032H73.3487V45.9543H75.6649V45.2329H72.5018V50.6506Z" fill="white"/>
<path d="M76.3313 50.6506H77.1709V48.1332C77.417 47.4928 77.8078 47.2572 78.1263 47.2572C78.2928 47.2572 78.3941 47.2793 78.5316 47.3235L78.6764 46.5874C78.5534 46.5285 78.4303 46.499 78.2349 46.499C77.8078 46.499 77.388 46.8082 77.1057 47.3308H77.084L77.0116 46.6021H76.3313V50.6506Z" fill="white"/>
<path d="M80.7795 50.7537C81.7639 50.7537 82.6541 49.9734 82.6541 48.6337C82.6541 47.2793 81.7639 46.499 80.7795 46.499C79.7879 46.499 78.9048 47.2793 78.9048 48.6337C78.9048 49.9734 79.7879 50.7537 80.7795 50.7537ZM80.7795 50.0544C80.1498 50.0544 79.7661 49.4876 79.7661 48.6337C79.7661 47.7725 80.1498 47.2057 80.7795 47.2057C81.402 47.2057 81.8 47.7725 81.8 48.6337C81.8 49.4876 81.402 50.0544 80.7795 50.0544Z" fill="white"/>
<path d="M83.633 50.6506H84.4726V47.7798C84.82 47.4265 85.0734 47.2351 85.4425 47.2351C85.9058 47.2351 86.1084 47.5075 86.1084 48.2141V50.6506H86.948V48.1037C86.948 47.0805 86.5717 46.499 85.7248 46.499C85.1819 46.499 84.7694 46.8008 84.4075 47.1689H84.3857L84.3134 46.6021H83.633V50.6506Z" fill="white"/>
<path d="M89.4888 50.7537C89.7856 50.7537 90.0534 50.6727 90.2777 50.5991L90.1257 49.9734C90.0027 50.025 89.8362 50.0765 89.6987 50.0765C89.2861 50.0765 89.1124 49.8188 89.1124 49.3404V47.2793H90.1547V46.6021H89.1124V45.4832H88.4175L88.3235 46.6021L87.701 46.6462V47.2793H88.28V49.333C88.28 50.1795 88.5985 50.7537 89.4888 50.7537Z" fill="white"/>
<path d="M90.4757 48.8914H92.3866V48.2583H90.4757V48.8914Z" fill="white"/>
<path d="M95.0098 50.7537C95.531 50.7537 95.987 50.577 96.3561 50.3268L96.0666 49.782C95.7698 49.9734 95.4731 50.0838 95.1184 50.0838C94.4308 50.0838 93.9531 49.6275 93.8879 48.8546H96.4719C96.4936 48.7515 96.5081 48.5896 96.5081 48.4202C96.5081 47.2719 95.9363 46.499 94.8868 46.499C93.9603 46.499 93.07 47.3161 93.07 48.6337C93.07 49.9661 93.9241 50.7537 95.0098 50.7537ZM93.8734 48.2657C93.9603 47.559 94.4018 47.1689 94.9013 47.1689C95.4803 47.1689 95.7843 47.5664 95.7843 48.2657H93.8734Z" fill="white"/>
<path d="M97.4448 50.6506H98.2844V47.7798C98.6318 47.4265 98.8852 47.2351 99.2543 47.2351C99.7175 47.2351 99.9202 47.5075 99.9202 48.2141V50.6506H100.76V48.1037C100.76 47.0805 100.383 46.499 99.5366 46.499C98.9937 46.499 98.5812 46.8008 98.2193 47.1689H98.1975L98.1252 46.6021H97.4448V50.6506Z" fill="white"/>
<path d="M103.337 50.7537C103.786 50.7537 104.198 50.5108 104.502 50.2016H104.524L104.589 50.6506H105.277V44.7913H104.437V46.2855L104.473 46.9554C104.155 46.6757 103.858 46.499 103.402 46.499C102.519 46.499 101.701 47.3161 101.701 48.6337C101.701 49.9734 102.338 50.7537 103.337 50.7537ZM103.539 50.047C102.917 50.047 102.562 49.5391 102.562 48.619C102.562 47.7504 103.011 47.2057 103.568 47.2057C103.865 47.2057 104.147 47.3087 104.437 47.5811V49.5538C104.155 49.8925 103.865 50.047 103.539 50.047Z" fill="white"/>
<path d="M108.219 50.6506H109.652C111.244 50.6506 112.171 49.6863 112.171 47.9197C112.171 46.1531 111.244 45.2329 109.609 45.2329H108.219V50.6506ZM109.066 49.9513V45.9249H109.543C110.687 45.9249 111.309 46.5726 111.309 47.9197C111.309 49.2668 110.687 49.9513 109.543 49.9513H109.066Z" fill="white"/>
<path d="M114.872 50.7537C115.393 50.7537 115.849 50.577 116.219 50.3268L115.929 49.782C115.632 49.9734 115.335 50.0838 114.981 50.0838C114.293 50.0838 113.815 49.6275 113.75 48.8546H116.334C116.356 48.7515 116.371 48.5896 116.371 48.4202C116.371 47.2719 115.799 46.499 114.749 46.499C113.823 46.499 112.932 47.3161 112.932 48.6337C112.932 49.9661 113.787 50.7537 114.872 50.7537ZM113.736 48.2657C113.823 47.559 114.264 47.1689 114.764 47.1689C115.343 47.1689 115.647 47.5664 115.647 48.2657H113.736Z" fill="white"/>
<path d="M118.162 50.6506H119.132L120.507 46.6021H119.696L119.016 48.7809C118.9 49.1784 118.784 49.5907 118.668 49.9881H118.632C118.516 49.5907 118.401 49.1784 118.285 48.7809L117.612 46.6021H116.758L118.162 50.6506Z" fill="white"/>
<path d="M122.824 50.7537C123.345 50.7537 123.801 50.577 124.171 50.3268L123.881 49.782C123.584 49.9734 123.287 50.0838 122.933 50.0838C122.245 50.0838 121.767 49.6275 121.702 48.8546H124.286C124.308 48.7515 124.323 48.5896 124.323 48.4202C124.323 47.2719 123.751 46.499 122.701 46.499C121.775 46.499 120.884 47.3161 120.884 48.6337C120.884 49.9661 121.739 50.7537 122.824 50.7537ZM121.688 48.2657C121.775 47.559 122.216 47.1689 122.716 47.1689C123.295 47.1689 123.599 47.5664 123.599 48.2657H121.688Z" fill="white"/>
<path d="M126.092 50.7537C126.301 50.7537 126.432 50.7169 126.54 50.6801L126.432 50.0397C126.359 50.0544 126.33 50.0544 126.294 50.0544C126.193 50.0544 126.099 49.9734 126.099 49.7452V44.7913H125.259V49.7011C125.259 50.3562 125.484 50.7537 126.092 50.7537Z" fill="white"/>
<path d="M129.015 50.7537C129.999 50.7537 130.889 49.9734 130.889 48.6337C130.889 47.2793 129.999 46.499 129.015 46.499C128.023 46.499 127.14 47.2793 127.14 48.6337C127.14 49.9734 128.023 50.7537 129.015 50.7537ZM129.015 50.0544C128.385 50.0544 128.001 49.4876 128.001 48.6337C128.001 47.7725 128.385 47.2057 129.015 47.2057C129.637 47.2057 130.035 47.7725 130.035 48.6337C130.035 49.4876 129.637 50.0544 129.015 50.0544Z" fill="white"/>
<path d="M131.868 52.2922H132.708V50.9819L132.679 50.2973C133.012 50.5918 133.374 50.7537 133.728 50.7537C134.626 50.7537 135.444 49.9513 135.444 48.5675C135.444 47.3161 134.872 46.499 133.866 46.499C133.417 46.499 132.99 46.7493 132.643 47.0511H132.621L132.549 46.6021H131.868V52.2922ZM133.569 50.047C133.323 50.047 133.019 49.9513 132.708 49.679V47.6989C133.041 47.375 133.338 47.2057 133.642 47.2057C134.307 47.2057 134.583 47.7283 134.583 48.5748C134.583 49.5244 134.141 50.047 133.569 50.047Z" fill="white"/>
<path d="M136.427 50.6506H137.267V47.7798C137.585 47.4118 137.889 47.2351 138.157 47.2351C138.613 47.2351 138.823 47.5075 138.823 48.2141V50.6506H139.656V47.7798C139.989 47.4118 140.278 47.2351 140.553 47.2351C141.002 47.2351 141.212 47.5075 141.212 48.2141V50.6506H142.044V48.1037C142.044 47.0805 141.661 46.499 140.828 46.499C140.329 46.499 139.923 46.8229 139.525 47.2425C139.359 46.7787 139.026 46.499 138.432 46.499C137.94 46.499 137.542 46.8008 137.202 47.1689H137.18L137.108 46.6021H136.427V50.6506Z" fill="white"/>
<path d="M144.92 50.7537C145.441 50.7537 145.897 50.577 146.267 50.3268L145.977 49.782C145.68 49.9734 145.384 50.0838 145.029 50.0838C144.341 50.0838 143.864 49.6275 143.798 48.8546H146.382C146.404 48.7515 146.419 48.5896 146.419 48.4202C146.419 47.2719 145.847 46.499 144.797 46.499C143.871 46.499 142.98 47.3161 142.98 48.6337C142.98 49.9661 143.835 50.7537 144.92 50.7537ZM143.784 48.2657C143.871 47.559 144.312 47.1689 144.812 47.1689C145.391 47.1689 145.695 47.5664 145.695 48.2657H143.784Z" fill="white"/>
<path d="M147.355 50.6506H148.195V47.7798C148.542 47.4265 148.796 47.2351 149.165 47.2351C149.628 47.2351 149.831 47.5075 149.831 48.2141V50.6506H150.67V48.1037C150.67 47.0805 150.294 46.499 149.447 46.499C148.904 46.499 148.492 46.8008 148.13 47.1689H148.108L148.036 46.6021H147.355V50.6506Z" fill="white"/>
<path d="M153.211 50.7537C153.508 50.7537 153.776 50.6727 154 50.5991L153.848 49.9734C153.725 50.025 153.558 50.0765 153.421 50.0765C153.008 50.0765 152.835 49.8188 152.835 49.3404V47.2793H153.877V46.6021H152.835V45.4832H152.14L152.046 46.6021L151.423 46.6462V47.2793H152.002V49.333C152.002 50.1795 152.321 50.7537 153.211 50.7537Z" fill="white"/>
<path d="M46.6949 61.4468H47.5417V59.1207H49.5105V58.3994H47.5417V56.7505H49.8579V56.0291H46.6949V61.4468Z" fill="white"/>
<path d="M50.5243 61.4468H51.3639V58.9294C51.61 58.2889 52.0008 58.0534 52.3193 58.0534C52.4858 58.0534 52.5871 58.0755 52.7247 58.1196L52.8694 57.3835C52.7464 57.3246 52.6233 57.2952 52.4279 57.2952C52.0008 57.2952 51.581 57.6044 51.2988 58.127H51.277L51.2047 57.3983H50.5243V61.4468Z" fill="white"/>
<path d="M54.1937 61.5499C54.6714 61.5499 55.0984 61.307 55.4603 60.9904H55.4893L55.5544 61.4468H56.242V59.0177C56.242 57.9356 55.786 57.2952 54.7944 57.2952C54.1575 57.2952 53.5929 57.5676 53.1876 57.8252L53.4988 58.4067C53.8318 58.1859 54.2298 57.9871 54.6497 57.9871C55.2287 57.9871 55.3952 58.3994 55.4024 58.8705C53.7521 59.0545 53.0283 59.5035 53.0283 60.3721C53.0283 61.0861 53.5133 61.5499 54.1937 61.5499ZM54.4542 60.8727C54.0996 60.8727 53.8318 60.7107 53.8318 60.3132C53.8318 59.8568 54.2226 59.555 55.4024 59.4152V60.4016C55.0767 60.7107 54.8017 60.8727 54.4542 60.8727Z" fill="white"/>
<path d="M57.416 61.4468H58.2557V58.576C58.5741 58.208 58.8781 58.0313 59.1459 58.0313C59.6019 58.0313 59.8118 58.3037 59.8118 59.0103V61.4468H60.6442V58.576C60.9772 58.208 61.2667 58.0313 61.5418 58.0313C61.9905 58.0313 62.2004 58.3037 62.2004 59.0103V61.4468H63.0328V58.8999C63.0328 57.8767 62.6492 57.2952 61.8168 57.2952C61.3174 57.2952 60.912 57.6191 60.5139 58.0387C60.3475 57.5749 60.0145 57.2952 59.421 57.2952C58.9288 57.2952 58.5307 57.597 58.1905 57.9651H58.1688L58.0964 57.3983H57.416V61.4468Z" fill="white"/>
<path d="M65.9089 61.5499C66.4301 61.5499 66.8861 61.3732 67.2552 61.1229L66.9657 60.5782C66.6689 60.7696 66.3722 60.88 66.0175 60.88C65.3299 60.88 64.8522 60.4236 64.787 59.6507H67.371C67.3928 59.5477 67.4072 59.3857 67.4072 59.2164C67.4072 58.0681 66.8354 57.2952 65.7859 57.2952C64.8594 57.2952 63.9691 58.1123 63.9691 59.4299C63.9691 60.7622 64.8232 61.5499 65.9089 61.5499ZM64.7726 59.0619C64.8594 58.3552 65.3009 57.9651 65.8004 57.9651C66.3794 57.9651 66.6834 58.3626 66.6834 59.0619H64.7726Z" fill="white"/>
<path d="M68.9669 61.4468H69.9295L70.4217 59.4593C70.5158 59.0766 70.5882 58.7012 70.6678 58.2742H70.704C70.7909 58.7012 70.8633 59.0692 70.9574 59.452L71.464 61.4468H72.4629L73.4979 57.3983H72.709L72.2023 59.5918C72.1155 59.982 72.0503 60.3574 71.9707 60.7402H71.9417C71.8476 60.3574 71.768 59.982 71.6739 59.5918L71.1021 57.3983H70.3276L69.7703 59.5918C69.669 59.9746 69.5894 60.3574 69.5097 60.7402H69.4735C69.4012 60.3574 69.336 59.982 69.2636 59.5918L68.7353 57.3983H67.8956L68.9669 61.4468Z" fill="white"/>
<path d="M75.8527 61.5499C76.8371 61.5499 77.7274 60.7696 77.7274 59.4299C77.7274 58.0755 76.8371 57.2952 75.8527 57.2952C74.8611 57.2952 73.9781 58.0755 73.9781 59.4299C73.9781 60.7696 74.8611 61.5499 75.8527 61.5499ZM75.8527 60.8506C75.223 60.8506 74.8394 60.2838 74.8394 59.4299C74.8394 58.5687 75.223 58.0019 75.8527 58.0019C76.4752 58.0019 76.8733 58.5687 76.8733 59.4299C76.8733 60.2838 76.4752 60.8506 75.8527 60.8506Z" fill="white"/>
<path d="M78.7063 61.4468H79.5459V58.9294C79.792 58.2889 80.1828 58.0534 80.5013 58.0534C80.6678 58.0534 80.7691 58.0755 80.9066 58.1196L81.0514 57.3835C80.9284 57.3246 80.8053 57.2952 80.6099 57.2952C80.1828 57.2952 79.763 57.6044 79.4807 58.127H79.459L79.3866 57.3983H78.7063V61.4468Z" fill="white"/>
<path d="M81.668 61.4468H82.4931V60.4016L83.1518 59.6139L84.2302 61.4468H85.1422L83.644 59.0471L84.9902 57.3983H84.0638L82.522 59.3563H82.4931V55.5874H81.668V61.4468Z" fill="white"/>
<path d="M61.0851 39.3811H62.7682V31.4803H61.0851V39.3811ZM61.9266 30.0007C62.536 30.0007 62.9713 29.6129 62.9713 29.0095C62.9713 28.4206 62.536 28.0327 61.9266 28.0327C61.3027 28.0327 60.8965 28.4206 60.8965 29.0095C60.8965 29.6129 61.3027 30.0007 61.9266 30.0007Z" fill="white"/>
<path d="M68.4716 39.5822C70.4449 39.5822 72.2295 38.0595 72.2295 35.4451C72.2295 32.8019 70.4449 31.2792 68.4716 31.2792C66.4838 31.2792 64.7137 32.8019 64.7137 35.4451C64.7137 38.0595 66.4838 39.5822 68.4716 39.5822ZM68.4716 38.2175C67.2093 38.2175 66.4403 37.1114 66.4403 35.4451C66.4403 33.7644 67.2093 32.6583 68.4716 32.6583C69.7194 32.6583 70.5174 33.7644 70.5174 35.4451C70.5174 37.1114 69.7194 38.2175 68.4716 38.2175Z" fill="white"/>
<path d="M74.1917 39.3811H75.8748V33.7787C76.5712 33.0892 77.079 32.7157 77.819 32.7157C78.7476 32.7157 79.1539 33.2472 79.1539 34.6263V39.3811H80.837V34.4108C80.837 32.4141 80.0825 31.2792 78.3849 31.2792C77.2967 31.2792 76.4696 31.8682 75.7442 32.5864H75.7007L75.5556 31.4803H74.1917V39.3811Z" fill="white"/>
<path d="M85.9881 42.9293C88.5418 42.9293 90.1668 41.6939 90.1668 40.1712C90.1668 38.8209 89.1802 38.2463 87.294 38.2463H85.814C84.8129 38.2463 84.4791 37.9446 84.4791 37.4849C84.4791 37.0971 84.6678 36.8672 84.9144 36.6517C85.2772 36.8098 85.6834 36.8816 86.0316 36.8816C87.7147 36.8816 89.0351 35.9048 89.0351 34.1666C89.0351 33.5633 88.8174 33.0461 88.5127 32.7301H90.0217V31.4803H87.2069C86.9022 31.3654 86.4959 31.2792 86.0316 31.2792C84.3921 31.2792 82.9412 32.3279 82.9412 34.1235C82.9412 35.0572 83.4635 35.8186 84.0003 36.2208V36.2783C83.5505 36.5943 83.1153 37.1258 83.1153 37.7435C83.1153 38.3899 83.42 38.8065 83.8407 39.0651V39.1369C83.1008 39.5678 82.68 40.1855 82.68 40.8607C82.68 42.2254 84.0729 42.9293 85.9881 42.9293ZM86.0316 35.8186C85.2191 35.8186 84.5372 35.1721 84.5372 34.1235C84.5372 33.0605 85.2046 32.4571 86.0316 32.4571C86.8732 32.4571 87.5406 33.0605 87.5406 34.1235C87.5406 35.1721 86.8587 35.8186 86.0316 35.8186ZM86.2348 41.8375C84.9144 41.8375 84.1019 41.3778 84.1019 40.6165C84.1019 40.2143 84.305 39.8121 84.7838 39.4529C85.1175 39.5391 85.4658 39.5678 85.843 39.5678H87.0473C88.0194 39.5678 88.5418 39.7833 88.5418 40.4441C88.5418 41.1624 87.6277 41.8375 86.2348 41.8375Z" fill="white"/>
<path d="M91.7791 39.3811H98.0037V37.9733H93.4767V28.8084H91.7791V39.3811Z" fill="white"/>
<path d="M102.676 39.5822C104.649 39.5822 106.434 38.0595 106.434 35.4451C106.434 32.8019 104.649 31.2792 102.676 31.2792C100.688 31.2792 98.9183 32.8019 98.9183 35.4451C98.9183 38.0595 100.688 39.5822 102.676 39.5822ZM102.676 38.2175C101.414 38.2175 100.645 37.1114 100.645 35.4451C100.645 33.7644 101.414 32.6583 102.676 32.6583C103.924 32.6583 104.722 33.7644 104.722 35.4451C104.722 37.1114 103.924 38.2175 102.676 38.2175Z" fill="white"/>
<path d="M110.747 39.5822C111.85 39.5822 112.619 39.022 113.344 38.1888H113.388L113.518 39.3811H114.896V31.4803H113.228V36.9678C112.56 37.8009 112.053 38.1457 111.313 38.1457C110.37 38.1457 109.963 37.6142 109.963 36.2495V31.4803H108.295V36.4506C108.295 38.4617 109.049 39.5822 110.747 39.5822Z" fill="white"/>
<path fill-rule="evenodd" clip-rule="evenodd" d="M51.5862 37.8086C53.9001 37.8086 55.7759 35.9328 55.7759 33.6189C55.7759 31.305 53.9001 29.4293 51.5862 29.4293C49.2723 29.4293 47.3966 31.305 47.3966 33.6189C47.3966 35.9328 49.2723 37.8086 51.5862 37.8086ZM51.5862 39.2051C54.6714 39.2051 57.1724 36.7041 57.1724 33.6189C57.1724 30.5337 54.6714 28.0327 51.5862 28.0327C48.501 28.0327 46 30.5337 46 33.6189C46 36.7041 48.501 39.2051 51.5862 39.2051Z" fill="white"/>
<path fill-rule="evenodd" clip-rule="evenodd" d="M56.1874 39.2051L51.5862 34.6039L52.5712 33.6189L57.1724 38.2201L56.1874 39.2051Z" fill="#007FFF"/>
<path fill-rule="evenodd" clip-rule="evenodd" d="M36.0379 0.924072L-4.74026e-05 36.9621L36.0379 73L72.0759 36.9621L36.0379 0.924072ZM69.559 36.9621L36.0379 70.4831L2.51691 36.9621L36.0379 3.44103L69.559 36.9621Z" fill="#DBECFE"/>
<path d="M36.7043 68.6019L34.7081 64.2216H19.9606L18.0052 68.6019H17.557V70.9209H37.1931V68.6019H36.7043Z" fill="url(#paint29_angular_513_195)"/>
<path d="M28.4682 2.02728L27.3232 0L26.3054 2.02728L25.8601 3.67445L26.1146 4.24462L25.6693 5.76508L25.0968 6.90543L25.5421 7.85571L24.4607 8.99606V10.0731V11.0233L18.9264 15.268L20.3895 16.4083L21.0256 16.5984V19.5759L18.4811 21.7299L20.3895 22.8703H33.748L36.0381 21.4132L33.4936 19.5759V16.4083H34.1933L35.5292 15.0145L30.313 11.0233V10.0731V8.99606L29.2316 7.85571L29.6133 6.90543L29.2316 5.76508L28.4682 4.24462L28.8499 3.67445L28.4682 2.02728Z" fill="url(#paint30_angular_513_195)"/>
<path d="M33.7826 25.9142V22.8702H20.7763V26.1678L18.4811 27.88L19.9475 29.3386H34.8027L36.269 27.88L33.7826 25.9142Z" fill="url(#paint31_angular_513_195)"/>
<path d="M33.7826 32.3826V29.3386H20.7763V32.6362L18.4811 34.3484L19.9475 35.807H34.8027L36.269 34.3484L33.7826 32.3826Z" fill="url(#paint32_angular_513_195)"/>
<path d="M33.7826 38.8509V35.807H20.7763V39.1046L18.4811 40.8168L19.9475 42.2754H34.8027L36.269 40.8168L33.7826 38.8509Z" fill="url(#paint33_angular_513_195)"/>
<path d="M33.7826 45.3193V42.2754H20.7763V45.573L18.4811 47.2852L19.9475 48.7437H34.8027L36.269 47.2852L33.7826 45.3193Z" fill="url(#paint34_angular_513_195)"/>
<path d="M33.7826 51.7876V48.7437H20.7763V52.0412L18.4811 53.7535L19.9475 55.212H34.8027L36.269 53.7535L33.7826 51.7876Z" fill="url(#paint35_angular_513_195)"/>
<path d="M33.7826 59.4518V55.212H20.7763V59.8051L18.4811 62.19L19.9475 64.2215H34.8027L36.269 62.19L33.7826 59.4518Z" fill="url(#paint36_angular_513_195)"/>
<path d="M36.7043 68.6019L34.7081 64.2216H19.9606L18.0052 68.6019H17.557V70.9209H37.1931V68.6019H36.7043Z" fill="url(#paint37_angular_513_195)"/>
<path d="M28.4682 2.02728L27.3232 0L26.3054 2.02728L25.8601 3.67445L26.1146 4.24462L25.6693 5.76508L25.0968 6.90543L25.5421 7.85571L24.4607 8.99606V10.0731V11.0233L18.9264 15.268L20.3895 16.4083L21.0256 16.5984V19.5759L18.4811 21.7299L20.3895 22.8703H33.748L36.0381 21.4132L33.4936 19.5759V16.4083H34.1933L35.5292 15.0145L30.313 11.0233V10.0731V8.99606L29.2316 7.85571L29.6133 6.90543L29.2316 5.76508L28.4682 4.24462L28.8499 3.67445L28.4682 2.02728Z" fill="url(#paint38_angular_513_195)"/>
<path d="M33.7826 25.9142V22.8702H20.7763V26.1678L18.4811 27.88L19.9475 29.3386H34.8027L36.269 27.88L33.7826 25.9142Z" fill="url(#paint39_angular_513_195)"/>
<path d="M33.7826 32.3826V29.3386H20.7763V32.6362L18.4811 34.3484L19.9475 35.807H34.8027L36.269 34.3484L33.7826 32.3826Z" fill="url(#paint40_angular_513_195)"/>
<path d="M33.7826 45.3193V42.2754H20.7763V45.573L18.4811 47.2852L19.9475 48.7437H34.8027L36.269 47.2852L33.7826 45.3193Z" fill="url(#paint41_angular_513_195)"/>
<path d="M33.7826 51.7876V48.7437H20.7763V52.0412L18.4811 53.7535L19.9475 55.212H34.8027L36.269 53.7535L33.7826 51.7876Z" fill="url(#paint42_angular_513_195)"/>
<path d="M28.4682 2.02728L27.3232 0L26.3054 2.02728L25.8601 3.67445L26.1146 4.24462L25.6693 5.76508L25.0968 6.90543L25.5421 7.85571L24.4607 8.99606V10.0731V11.0233L18.9264 15.268L20.3895 16.4083L21.0256 16.5984V19.5759L18.4811 21.7299L20.3895 22.8703H33.748L36.0381 21.4132L33.4936 19.5759V16.4083H34.1933L35.5292 15.0145L30.313 11.0233V10.0731V8.99606L29.2316 7.85571L29.6133 6.90543L29.2316 5.76508L28.4682 4.24462L28.8499 3.67445L28.4682 2.02728Z" fill="url(#paint43_linear_513_195)"/>
<path d="M33.7826 25.9142V22.8702H20.7763V26.1678L18.4811 27.88L19.9475 29.3386H34.8027L36.269 27.88L33.7826 25.9142Z" fill="url(#paint44_linear_513_195)"/>
<path d="M33.7826 32.3826V29.3386H20.7763V32.6362L18.4811 34.3484L19.9475 35.807H34.8027L36.269 34.3484L33.7826 32.3826Z" fill="url(#paint45_linear_513_195)"/>
<path d="M33.7826 38.8509V35.807H20.7763V39.1046L18.4811 40.8168L19.9475 42.2754H34.8027L36.269 40.8168L33.7826 38.8509Z" fill="url(#paint46_linear_513_195)"/>
<path d="M33.7826 45.3193V42.2754H20.7763V45.573L18.4811 47.2852L19.9475 48.7437H34.8027L36.269 47.2852L33.7826 45.3193Z" fill="url(#paint47_linear_513_195)"/>
<path d="M33.7826 51.7876V48.7437H20.7763V52.0412L18.4811 53.7535L19.9475 55.212H34.8027L36.269 53.7535L33.7826 51.7876Z" fill="url(#paint48_linear_513_195)"/>
<path d="M33.7826 59.4518V55.212H20.7763V59.8051L18.4811 62.19L19.9475 64.2215H34.8027L36.269 62.19L33.7826 59.4518Z" fill="url(#paint49_linear_513_195)"/>
<path fill-rule="evenodd" clip-rule="evenodd" d="M36.0379 0.924072L-4.74026e-05 36.9621L36.0379 73L72.0759 36.9621L36.0379 0.924072ZM69.559 36.9621L36.0379 70.4831L2.51691 36.9621L36.0379 3.44103L69.559 36.9621Z" fill="url(#paint50_linear_513_195)"/>
<path d="M36.7043 68.6019L34.7081 64.2216H19.9606L18.0052 68.6019H17.557V70.9209H37.1931V68.6019H36.7043Z" fill="url(#paint51_linear_513_195)"/>
<path d="M28.4682 2.02728L27.3232 0L26.3054 2.02728L25.8601 3.67445L26.1146 4.24462L25.6693 5.76508L25.0968 6.90543L25.5421 7.85571L24.4607 8.99606V10.0731V11.0233L18.9264 15.268L20.3895 16.4083L21.0256 16.5984V19.5759L18.4811 21.7299L20.3895 22.8703H33.748L36.0381 21.4132L33.4936 19.5759V16.4083H34.1933L35.5292 15.0145L30.313 11.0233V10.0731V8.99606L29.2316 7.85571L29.6133 6.90543L29.2316 5.76508L28.4682 4.24462L28.8499 3.67445L28.4682 2.02728Z" fill="url(#paint52_linear_513_195)"/>
<path d="M33.7826 25.9142V22.8702H20.7763V26.1678L18.4811 27.88L19.9475 29.3386H34.8027L36.269 27.88L33.7826 25.9142Z" fill="url(#paint53_linear_513_195)"/>
<path d="M33.7826 32.3826V29.3386H20.7763V32.6362L18.4811 34.3484L19.9475 35.807H34.8027L36.269 34.3484L33.7826 32.3826Z" fill="url(#paint54_linear_513_195)"/>
<path d="M33.7826 38.8509V35.807H20.7763V39.1046L18.4811 40.8168L19.9475 42.2754H34.8027L36.269 40.8168L33.7826 38.8509Z" fill="url(#paint55_linear_513_195)"/>
<path d="M33.7826 45.3193V42.2754H20.7763V45.573L18.4811 47.2852L19.9475 48.7437H34.8027L36.269 47.2852L33.7826 45.3193Z" fill="url(#paint56_linear_513_195)"/>
<path d="M33.7826 51.7876V48.7437H20.7763V52.0412L18.4811 53.7535L19.9475 55.212H34.8027L36.269 53.7535L33.7826 51.7876Z" fill="url(#paint57_linear_513_195)"/>
<path d="M88.8279 60.3086C88.8279 59.9658 89.0264 59.6879 89.2712 59.6879H107.005C107.25 59.6879 107.449 59.9658 107.449 60.3086V60.9292C107.449 61.272 107.25 61.5499 107.005 61.5499H89.2712C89.0264 61.5499 88.8279 61.272 88.8279 60.9292V60.3086Z" fill="#007FFF"/>
<path d="M46 50.6506H46.8541L47.7154 47.7136C47.8964 47.1247 48.0556 46.5211 48.2149 45.9101H48.2438C48.4103 46.5137 48.5695 47.1247 48.7505 47.7136L49.6046 50.6506H50.4949L48.736 45.2329H47.7589L46 50.6506ZM46.9916 49.1122H49.4815V48.4423H46.9916V49.1122Z" fill="black"/>
<path d="M52.3157 50.7537C52.6125 50.7537 52.8803 50.6727 53.1047 50.5991L52.9527 49.9734C52.8296 50.025 52.6631 50.0765 52.5256 50.0765C52.113 50.0765 51.9393 49.8188 51.9393 49.3404V47.2793H52.9816V46.6021H51.9393V45.4832H51.2445L51.1504 46.6021L50.5279 46.6462V47.2793H51.1069V49.333C51.1069 50.1795 51.4254 50.7537 52.3157 50.7537Z" fill="black"/>
<path d="M55.2976 50.7537C56.282 50.7537 57.1723 49.9734 57.1723 48.6337C57.1723 47.2793 56.282 46.499 55.2976 46.499C54.306 46.499 53.423 47.2793 53.423 48.6337C53.423 49.9734 54.306 50.7537 55.2976 50.7537ZM55.2976 50.0544C54.6679 50.0544 54.2843 49.4876 54.2843 48.6337C54.2843 47.7725 54.6679 47.2057 55.2976 47.2057C55.9201 47.2057 56.3182 47.7725 56.3182 48.6337C56.3182 49.4876 55.9201 50.0544 55.2976 50.0544Z" fill="black"/>
<path d="M58.1512 50.6506H58.9908V47.7798C59.3093 47.4118 59.6133 47.2351 59.8811 47.2351C60.3371 47.2351 60.547 47.5075 60.547 48.2141V50.6506H61.3794V47.7798C61.7123 47.4118 62.0018 47.2351 62.2769 47.2351C62.7256 47.2351 62.9355 47.5075 62.9355 48.2141V50.6506H63.7679V48.1037C63.7679 47.0805 63.3843 46.499 62.5519 46.499C62.0525 46.499 61.6472 46.8229 61.2491 47.2425C61.0826 46.7787 60.7496 46.499 60.1561 46.499C59.6639 46.499 59.2658 46.8008 58.9256 47.1689H58.9039L58.8315 46.6021H58.1512V50.6506Z" fill="black"/>
<path d="M64.9793 50.6506H65.8189V46.6021H64.9793V50.6506ZM65.3991 45.8439C65.7031 45.8439 65.9202 45.6451 65.9202 45.336C65.9202 45.0342 65.7031 44.8354 65.3991 44.8354C65.0879 44.8354 64.8852 45.0342 64.8852 45.336C64.8852 45.6451 65.0879 45.8439 65.3991 45.8439Z" fill="black"/>
<path d="M68.6858 50.7537C69.1491 50.7537 69.6195 50.577 69.9815 50.2531L69.6413 49.6863C69.4024 49.8925 69.1056 50.0544 68.7727 50.0544C68.1068 50.0544 67.6508 49.4876 67.6508 48.6337C67.6508 47.7725 68.1213 47.2057 68.8016 47.2057C69.0694 47.2057 69.2938 47.3235 69.511 47.5148L69.9163 46.9701C69.634 46.7051 69.2649 46.499 68.7582 46.499C67.7087 46.499 66.7894 47.2793 66.7894 48.6337C66.7894 49.9734 67.6146 50.7537 68.6858 50.7537Z" fill="black"/>
<path d="M72.5018 50.6506H73.3487V48.3246H75.3175V47.6032H73.3487V45.9543H75.6649V45.2329H72.5018V50.6506Z" fill="black"/>
<path d="M76.3313 50.6506H77.1709V48.1332C77.417 47.4928 77.8078 47.2572 78.1263 47.2572C78.2928 47.2572 78.3941 47.2793 78.5316 47.3235L78.6764 46.5874C78.5534 46.5285 78.4303 46.499 78.2349 46.499C77.8078 46.499 77.388 46.8082 77.1057 47.3308H77.084L77.0116 46.6021H76.3313V50.6506Z" fill="black"/>
<path d="M80.7795 50.7537C81.7639 50.7537 82.6541 49.9734 82.6541 48.6337C82.6541 47.2793 81.7639 46.499 80.7795 46.499C79.7879 46.499 78.9048 47.2793 78.9048 48.6337C78.9048 49.9734 79.7879 50.7537 80.7795 50.7537ZM80.7795 50.0544C80.1498 50.0544 79.7661 49.4876 79.7661 48.6337C79.7661 47.7725 80.1498 47.2057 80.7795 47.2057C81.402 47.2057 81.8 47.7725 81.8 48.6337C81.8 49.4876 81.402 50.0544 80.7795 50.0544Z" fill="black"/>
<path d="M83.633 50.6506H84.4726V47.7798C84.82 47.4265 85.0734 47.2351 85.4425 47.2351C85.9058 47.2351 86.1084 47.5075 86.1084 48.2141V50.6506H86.948V48.1037C86.948 47.0805 86.5717 46.499 85.7248 46.499C85.1819 46.499 84.7694 46.8008 84.4075 47.1689H84.3857L84.3134 46.6021H83.633V50.6506Z" fill="black"/>
<path d="M89.4888 50.7537C89.7856 50.7537 90.0534 50.6727 90.2777 50.5991L90.1257 49.9734C90.0027 50.025 89.8362 50.0765 89.6987 50.0765C89.2861 50.0765 89.1124 49.8188 89.1124 49.3404V47.2793H90.1547V46.6021H89.1124V45.4832H88.4175L88.3235 46.6021L87.701 46.6462V47.2793H88.28V49.333C88.28 50.1795 88.5985 50.7537 89.4888 50.7537Z" fill="black"/>
<path d="M90.4757 48.8914H92.3866V48.2583H90.4757V48.8914Z" fill="black"/>
<path d="M95.0098 50.7537C95.531 50.7537 95.987 50.577 96.3561 50.3268L96.0666 49.782C95.7698 49.9734 95.4731 50.0838 95.1184 50.0838C94.4308 50.0838 93.9531 49.6275 93.8879 48.8546H96.4719C96.4936 48.7515 96.5081 48.5896 96.5081 48.4202C96.5081 47.2719 95.9363 46.499 94.8868 46.499C93.9603 46.499 93.07 47.3161 93.07 48.6337C93.07 49.9661 93.9241 50.7537 95.0098 50.7537ZM93.8734 48.2657C93.9603 47.559 94.4018 47.1689 94.9013 47.1689C95.4803 47.1689 95.7843 47.5664 95.7843 48.2657H93.8734Z" fill="black"/>
<path d="M97.4448 50.6506H98.2844V47.7798C98.6318 47.4265 98.8852 47.2351 99.2543 47.2351C99.7175 47.2351 99.9202 47.5075 99.9202 48.2141V50.6506H100.76V48.1037C100.76 47.0805 100.383 46.499 99.5366 46.499C98.9937 46.499 98.5812 46.8008 98.2193 47.1689H98.1975L98.1252 46.6021H97.4448V50.6506Z" fill="black"/>
<path d="M103.337 50.7537C103.786 50.7537 104.198 50.5108 104.502 50.2016H104.524L104.589 50.6506H105.277V44.7913H104.437V46.2855L104.473 46.9554C104.155 46.6757 103.858 46.499 103.402 46.499C102.519 46.499 101.701 47.3161 101.701 48.6337C101.701 49.9734 102.338 50.7537 103.337 50.7537ZM103.539 50.047C102.917 50.047 102.562 49.5391 102.562 48.619C102.562 47.7504 103.011 47.2057 103.568 47.2057C103.865 47.2057 104.147 47.3087 104.437 47.5811V49.5538C104.155 49.8925 103.865 50.047 103.539 50.047Z" fill="black"/>
<path d="M108.219 50.6506H109.652C111.244 50.6506 112.171 49.6863 112.171 47.9197C112.171 46.1531 111.244 45.2329 109.609 45.2329H108.219V50.6506ZM109.066 49.9513V45.9249H109.543C110.687 45.9249 111.309 46.5726 111.309 47.9197C111.309 49.2668 110.687 49.9513 109.543 49.9513H109.066Z" fill="black"/>
<path d="M114.872 50.7537C115.393 50.7537 115.849 50.577 116.219 50.3268L115.929 49.782C115.632 49.9734 115.335 50.0838 114.981 50.0838C114.293 50.0838 113.815 49.6275 113.75 48.8546H116.334C116.356 48.7515 116.371 48.5896 116.371 48.4202C116.371 47.2719 115.799 46.499 114.749 46.499C113.823 46.499 112.932 47.3161 112.932 48.6337C112.932 49.9661 113.787 50.7537 114.872 50.7537ZM113.736 48.2657C113.823 47.559 114.264 47.1689 114.764 47.1689C115.343 47.1689 115.647 47.5664 115.647 48.2657H113.736Z" fill="black"/>
<path d="M118.162 50.6506H119.132L120.507 46.6021H119.696L119.016 48.7809C118.9 49.1784 118.784 49.5907 118.668 49.9881H118.632C118.516 49.5907 118.401 49.1784 118.285 48.7809L117.612 46.6021H116.758L118.162 50.6506Z" fill="black"/>
<path d="M122.824 50.7537C123.345 50.7537 123.801 50.577 124.171 50.3268L123.881 49.782C123.584 49.9734 123.287 50.0838 122.933 50.0838C122.245 50.0838 121.767 49.6275 121.702 48.8546H124.286C124.308 48.7515 124.323 48.5896 124.323 48.4202C124.323 47.2719 123.751 46.499 122.701 46.499C121.775 46.499 120.884 47.3161 120.884 48.6337C120.884 49.9661 121.739 50.7537 122.824 50.7537ZM121.688 48.2657C121.775 47.559 122.216 47.1689 122.716 47.1689C123.295 47.1689 123.599 47.5664 123.599 48.2657H121.688Z" fill="black"/>
<path d="M126.092 50.7537C126.301 50.7537 126.432 50.7169 126.54 50.6801L126.432 50.0397C126.359 50.0544 126.33 50.0544 126.294 50.0544C126.193 50.0544 126.099 49.9734 126.099 49.7452V44.7913H125.259V49.7011C125.259 50.3562 125.484 50.7537 126.092 50.7537Z" fill="black"/>
<path d="M129.015 50.7537C129.999 50.7537 130.889 49.9734 130.889 48.6337C130.889 47.2793 129.999 46.499 129.015 46.499C128.023 46.499 127.14 47.2793 127.14 48.6337C127.14 49.9734 128.023 50.7537 129.015 50.7537ZM129.015 50.0544C128.385 50.0544 128.001 49.4876 128.001 48.6337C128.001 47.7725 128.385 47.2057 129.015 47.2057C129.637 47.2057 130.035 47.7725 130.035 48.6337C130.035 49.4876 129.637 50.0544 129.015 50.0544Z" fill="black"/>
<path d="M131.868 52.2922H132.708V50.9819L132.679 50.2973C133.012 50.5918 133.374 50.7537 133.728 50.7537C134.626 50.7537 135.444 49.9513 135.444 48.5675C135.444 47.3161 134.872 46.499 133.866 46.499C133.417 46.499 132.99 46.7493 132.643 47.0511H132.621L132.549 46.6021H131.868V52.2922ZM133.569 50.047C133.323 50.047 133.019 49.9513 132.708 49.679V47.6989C133.041 47.375 133.338 47.2057 133.642 47.2057C134.307 47.2057 134.583 47.7283 134.583 48.5748C134.583 49.5244 134.141 50.047 133.569 50.047Z" fill="black"/>
<path d="M136.427 50.6506H137.267V47.7798C137.585 47.4118 137.889 47.2351 138.157 47.2351C138.613 47.2351 138.823 47.5075 138.823 48.2141V50.6506H139.656V47.7798C139.989 47.4118 140.278 47.2351 140.553 47.2351C141.002 47.2351 141.212 47.5075 141.212 48.2141V50.6506H142.044V48.1037C142.044 47.0805 141.661 46.499 140.828 46.499C140.329 46.499 139.923 46.8229 139.525 47.2425C139.359 46.7787 139.026 46.499 138.432 46.499C137.94 46.499 137.542 46.8008 137.202 47.1689H137.18L137.108 46.6021H136.427V50.6506Z" fill="black"/>
<path d="M144.92 50.7537C145.441 50.7537 145.897 50.577 146.267 50.3268L145.977 49.782C145.68 49.9734 145.384 50.0838 145.029 50.0838C144.341 50.0838 143.864 49.6275 143.798 48.8546H146.382C146.404 48.7515 146.419 48.5896 146.419 48.4202C146.419 47.2719 145.847 46.499 144.797 46.499C143.871 46.499 142.98 47.3161 142.98 48.6337C142.98 49.9661 143.835 50.7537 144.92 50.7537ZM143.784 48.2657C143.871 47.559 144.312 47.1689 144.812 47.1689C145.391 47.1689 145.695 47.5664 145.695 48.2657H143.784Z" fill="black"/>
<path d="M147.355 50.6506H148.195V47.7798C148.542 47.4265 148.796 47.2351 149.165 47.2351C149.628 47.2351 149.831 47.5075 149.831 48.2141V50.6506H150.67V48.1037C150.67 47.0805 150.294 46.499 149.447 46.499C148.904 46.499 148.492 46.8008 148.13 47.1689H148.108L148.036 46.6021H147.355V50.6506Z" fill="black"/>
<path d="M153.211 50.7537C153.508 50.7537 153.776 50.6727 154 50.5991L153.848 49.9734C153.725 50.025 153.558 50.0765 153.421 50.0765C153.008 50.0765 152.835 49.8188 152.835 49.3404V47.2793H153.877V46.6021H152.835V45.4832H152.14L152.046 46.6021L151.423 46.6462V47.2793H152.002V49.333C152.002 50.1795 152.321 50.7537 153.211 50.7537Z" fill="black"/>
<path d="M46.6949 61.4468H47.5417V59.1207H49.5105V58.3994H47.5417V56.7505H49.8579V56.0291H46.6949V61.4468Z" fill="black"/>
<path d="M50.5243 61.4468H51.3639V58.9294C51.61 58.2889 52.0008 58.0534 52.3193 58.0534C52.4858 58.0534 52.5871 58.0755 52.7247 58.1196L52.8694 57.3835C52.7464 57.3246 52.6233 57.2952 52.4279 57.2952C52.0008 57.2952 51.581 57.6044 51.2988 58.127H51.277L51.2047 57.3983H50.5243V61.4468Z" fill="black"/>
<path d="M54.1937 61.5499C54.6714 61.5499 55.0984 61.307 55.4603 60.9904H55.4893L55.5544 61.4468H56.242V59.0177C56.242 57.9356 55.786 57.2952 54.7944 57.2952C54.1575 57.2952 53.5929 57.5676 53.1876 57.8252L53.4988 58.4067C53.8318 58.1859 54.2298 57.9871 54.6497 57.9871C55.2287 57.9871 55.3952 58.3994 55.4024 58.8705C53.7521 59.0545 53.0283 59.5035 53.0283 60.3721C53.0283 61.0861 53.5133 61.5499 54.1937 61.5499ZM54.4542 60.8727C54.0996 60.8727 53.8318 60.7107 53.8318 60.3132C53.8318 59.8568 54.2226 59.555 55.4024 59.4152V60.4016C55.0767 60.7107 54.8017 60.8727 54.4542 60.8727Z" fill="black"/>
<path d="M57.416 61.4468H58.2557V58.576C58.5741 58.208 58.8781 58.0313 59.1459 58.0313C59.6019 58.0313 59.8118 58.3037 59.8118 59.0103V61.4468H60.6442V58.576C60.9772 58.208 61.2667 58.0313 61.5418 58.0313C61.9905 58.0313 62.2004 58.3037 62.2004 59.0103V61.4468H63.0328V58.8999C63.0328 57.8767 62.6492 57.2952 61.8168 57.2952C61.3174 57.2952 60.912 57.6191 60.5139 58.0387C60.3475 57.5749 60.0145 57.2952 59.421 57.2952C58.9288 57.2952 58.5307 57.597 58.1905 57.9651H58.1688L58.0964 57.3983H57.416V61.4468Z" fill="black"/>
<path d="M65.9089 61.5499C66.4301 61.5499 66.8861 61.3732 67.2552 61.1229L66.9657 60.5782C66.6689 60.7696 66.3722 60.88 66.0175 60.88C65.3299 60.88 64.8522 60.4236 64.787 59.6507H67.371C67.3928 59.5477 67.4072 59.3857 67.4072 59.2164C67.4072 58.0681 66.8354 57.2952 65.7859 57.2952C64.8594 57.2952 63.9691 58.1123 63.9691 59.4299C63.9691 60.7622 64.8232 61.5499 65.9089 61.5499ZM64.7726 59.0619C64.8594 58.3552 65.3009 57.9651 65.8004 57.9651C66.3794 57.9651 66.6834 58.3626 66.6834 59.0619H64.7726Z" fill="black"/>
<path d="M68.9669 61.4468H69.9295L70.4217 59.4593C70.5158 59.0766 70.5882 58.7012 70.6678 58.2742H70.704C70.7909 58.7012 70.8633 59.0692 70.9574 59.452L71.464 61.4468H72.4629L73.4979 57.3983H72.709L72.2023 59.5918C72.1155 59.982 72.0503 60.3574 71.9707 60.7402H71.9417C71.8476 60.3574 71.768 59.982 71.6739 59.5918L71.1021 57.3983H70.3276L69.7703 59.5918C69.669 59.9746 69.5894 60.3574 69.5097 60.7402H69.4735C69.4012 60.3574 69.336 59.982 69.2636 59.5918L68.7353 57.3983H67.8956L68.9669 61.4468Z" fill="black"/>
<path d="M75.8527 61.5499C76.8371 61.5499 77.7274 60.7696 77.7274 59.4299C77.7274 58.0755 76.8371 57.2952 75.8527 57.2952C74.8611 57.2952 73.9781 58.0755 73.9781 59.4299C73.9781 60.7696 74.8611 61.5499 75.8527 61.5499ZM75.8527 60.8506C75.223 60.8506 74.8394 60.2838 74.8394 59.4299C74.8394 58.5687 75.223 58.0019 75.8527 58.0019C76.4752 58.0019 76.8733 58.5687 76.8733 59.4299C76.8733 60.2838 76.4752 60.8506 75.8527 60.8506Z" fill="black"/>
<path d="M78.7063 61.4468H79.5459V58.9294C79.792 58.2889 80.1828 58.0534 80.5013 58.0534C80.6678 58.0534 80.7691 58.0755 80.9066 58.1196L81.0514 57.3835C80.9284 57.3246 80.8053 57.2952 80.6099 57.2952C80.1828 57.2952 79.763 57.6044 79.4807 58.127H79.459L79.3866 57.3983H78.7063V61.4468Z" fill="black"/>
<path d="M81.668 61.4468H82.4931V60.4016L83.1518 59.6139L84.2302 61.4468H85.1422L83.644 59.0471L84.9902 57.3983H84.0638L82.522 59.3563H82.4931V55.5874H81.668V61.4468Z" fill="black"/>
<path d="M61.0851 39.3811H62.7682V31.4803H61.0851V39.3811ZM61.9266 30.0007C62.536 30.0007 62.9713 29.6129 62.9713 29.0095C62.9713 28.4206 62.536 28.0327 61.9266 28.0327C61.3027 28.0327 60.8965 28.4206 60.8965 29.0095C60.8965 29.6129 61.3027 30.0007 61.9266 30.0007Z" fill="black"/>
<path d="M68.4716 39.5822C70.4449 39.5822 72.2295 38.0595 72.2295 35.4451C72.2295 32.8019 70.4449 31.2792 68.4716 31.2792C66.4838 31.2792 64.7137 32.8019 64.7137 35.4451C64.7137 38.0595 66.4838 39.5822 68.4716 39.5822ZM68.4716 38.2175C67.2093 38.2175 66.4403 37.1114 66.4403 35.4451C66.4403 33.7644 67.2093 32.6583 68.4716 32.6583C69.7194 32.6583 70.5174 33.7644 70.5174 35.4451C70.5174 37.1114 69.7194 38.2175 68.4716 38.2175Z" fill="black"/>
<path d="M74.1917 39.3811H75.8748V33.7787C76.5712 33.0892 77.079 32.7157 77.819 32.7157C78.7476 32.7157 79.1539 33.2472 79.1539 34.6263V39.3811H80.837V34.4108C80.837 32.4141 80.0825 31.2792 78.3849 31.2792C77.2967 31.2792 76.4696 31.8682 75.7442 32.5864H75.7007L75.5556 31.4803H74.1917V39.3811Z" fill="black"/>
<path d="M85.9881 42.9293C88.5418 42.9293 90.1668 41.6939 90.1668 40.1712C90.1668 38.8209 89.1802 38.2463 87.294 38.2463H85.814C84.8129 38.2463 84.4791 37.9446 84.4791 37.4849C84.4791 37.0971 84.6678 36.8672 84.9144 36.6517C85.2772 36.8098 85.6834 36.8816 86.0316 36.8816C87.7147 36.8816 89.0351 35.9048 89.0351 34.1666C89.0351 33.5633 88.8174 33.0461 88.5127 32.7301H90.0217V31.4803H87.2069C86.9022 31.3654 86.4959 31.2792 86.0316 31.2792C84.3921 31.2792 82.9412 32.3279 82.9412 34.1235C82.9412 35.0572 83.4635 35.8186 84.0003 36.2208V36.2783C83.5505 36.5943 83.1153 37.1258 83.1153 37.7435C83.1153 38.3899 83.42 38.8065 83.8407 39.0651V39.1369C83.1008 39.5678 82.68 40.1855 82.68 40.8607C82.68 42.2254 84.0729 42.9293 85.9881 42.9293ZM86.0316 35.8186C85.2191 35.8186 84.5372 35.1721 84.5372 34.1235C84.5372 33.0605 85.2046 32.4571 86.0316 32.4571C86.8732 32.4571 87.5406 33.0605 87.5406 34.1235C87.5406 35.1721 86.8587 35.8186 86.0316 35.8186ZM86.2348 41.8375C84.9144 41.8375 84.1019 41.3778 84.1019 40.6165C84.1019 40.2143 84.305 39.8121 84.7838 39.4529C85.1175 39.5391 85.4658 39.5678 85.843 39.5678H87.0473C88.0194 39.5678 88.5418 39.7833 88.5418 40.4441C88.5418 41.1624 87.6277 41.8375 86.2348 41.8375Z" fill="black"/>
<path d="M91.7791 39.3811H98.0037V37.9733H93.4767V28.8084H91.7791V39.3811Z" fill="black"/>
<path d="M102.676 39.5822C104.649 39.5822 106.434 38.0595 106.434 35.4451C106.434 32.8019 104.649 31.2792 102.676 31.2792C100.688 31.2792 98.9183 32.8019 98.9183 35.4451C98.9183 38.0595 100.688 39.5822 102.676 39.5822ZM102.676 38.2175C101.414 38.2175 100.645 37.1114 100.645 35.4451C100.645 33.7644 101.414 32.6583 102.676 32.6583C103.924 32.6583 104.722 33.7644 104.722 35.4451C104.722 37.1114 103.924 38.2175 102.676 38.2175Z" fill="black"/>
<path d="M110.747 39.5822C111.85 39.5822 112.619 39.022 113.344 38.1888H113.388L113.518 39.3811H114.896V31.4803H113.228V36.9678C112.56 37.8009 112.053 38.1457 111.313 38.1457C110.37 38.1457 109.963 37.6142 109.963 36.2495V31.4803H108.295V36.4506C108.295 38.4617 109.049 39.5822 110.747 39.5822Z" fill="black"/>
<path fill-rule="evenodd" clip-rule="evenodd" d="M51.5862 37.8086C53.9001 37.8086 55.7759 35.9328 55.7759 33.6189C55.7759 31.305 53.9001 29.4293 51.5862 29.4293C49.2723 29.4293 47.3966 31.305 47.3966 33.6189C47.3966 35.9328 49.2723 37.8086 51.5862 37.8086ZM51.5862 39.2051C54.6714 39.2051 57.1724 36.7041 57.1724 33.6189C57.1724 30.5337 54.6714 28.0327 51.5862 28.0327C48.501 28.0327 46 30.5337 46 33.6189C46 36.7041 48.501 39.2051 51.5862 39.2051Z" fill="black"/>
<path fill-rule="evenodd" clip-rule="evenodd" d="M56.1874 39.2051L51.5862 34.6039L52.5712 33.6189L57.1724 38.2201L56.1874 39.2051Z" fill="#007FFF"/>
<g style="mix-blend-mode:soft-light">
<path fill-rule="evenodd" clip-rule="evenodd" d="M36.0379 0.924072L-4.74026e-05 36.9621L36.0379 73L72.0759 36.9621L36.0379 0.924072ZM69.559 36.9621L36.0379 70.4831L2.51691 36.9621L36.0379 3.44103L69.559 36.9621Z" fill="#00F8F8"/>
<path d="M36.7043 68.6019L34.7081 64.2216H19.9606L18.0052 68.6019H17.557V70.9209H37.1931V68.6019H36.7043Z" fill="#00F8F8"/>
<path d="M28.4682 2.02728L27.3232 0L26.3054 2.02728L25.8601 3.67445L26.1146 4.24462L25.6693 5.76508L25.0968 6.90543L25.5421 7.85571L24.4607 8.99606V10.0731V11.0233L18.9264 15.268L20.3895 16.4083L21.0256 16.5984V19.5759L18.4811 21.7299L20.3895 22.8703H33.748L36.0381 21.4132L33.4936 19.5759V16.4083H34.1933L35.5292 15.0145L30.313 11.0233V10.0731V8.99606L29.2316 7.85571L29.6133 6.90543L29.2316 5.76508L28.4682 4.24462L28.8499 3.67445L28.4682 2.02728Z" fill="#00F8F8"/>
<path d="M33.7826 25.9142V22.8702H20.7763V26.1678L18.4811 27.88L19.9475 29.3386H34.8027L36.269 27.88L33.7826 25.9142Z" fill="#00F8F8"/>
<path d="M33.7826 32.3826V29.3386H20.7763V32.6362L18.4811 34.3484L19.9475 35.807H34.8027L36.269 34.3484L33.7826 32.3826Z" fill="#00F8F8"/>
<path d="M33.7826 38.8509V35.807H20.7763V39.1046L18.4811 40.8168L19.9475 42.2754H34.8027L36.269 40.8168L33.7826 38.8509Z" fill="#00F8F8"/>
<path d="M33.7826 45.3193V42.2754H20.7763V45.573L18.4811 47.2852L19.9475 48.7437H34.8027L36.269 47.2852L33.7826 45.3193Z" fill="#00F8F8"/>
<path d="M33.7826 51.7876V48.7437H20.7763V52.0412L18.4811 53.7535L19.9475 55.212H34.8027L36.269 53.7535L33.7826 51.7876Z" fill="#00F8F8"/>
<path d="M33.7826 59.4518V55.212H20.7763V59.8051L18.4811 62.19L19.9475 64.2215H34.8027L36.269 62.19L33.7826 59.4518Z" fill="#00F8F8"/>
<path d="M36.7043 68.6019L34.7081 64.2216H19.9606L18.0052 68.6019H17.557V70.9209H37.1931V68.6019H36.7043Z" fill="#00F8F8"/>
<path d="M28.4682 2.02728L27.3232 0L26.3054 2.02728L25.8601 3.67445L26.1146 4.24462L25.6693 5.76508L25.0968 6.90543L25.5421 7.85571L24.4607 8.99606V10.0731V11.0233L18.9264 15.268L20.3895 16.4083L21.0256 16.5984V19.5759L18.4811 21.7299L20.3895 22.8703H33.748L36.0381 21.4132L33.4936 19.5759V16.4083H34.1933L35.5292 15.0145L30.313 11.0233V10.0731V8.99606L29.2316 7.85571L29.6133 6.90543L29.2316 5.76508L28.4682 4.24462L28.8499 3.67445L28.4682 2.02728Z" fill="#00F8F8"/>
<path d="M33.7826 25.9142V22.8702H20.7763V26.1678L18.4811 27.88L19.9475 29.3386H34.8027L36.269 27.88L33.7826 25.9142Z" fill="#00F8F8"/>
<path d="M33.7826 32.3826V29.3386H20.7763V32.6362L18.4811 34.3484L19.9475 35.807H34.8027L36.269 34.3484L33.7826 32.3826Z" fill="#00F8F8"/>
<path d="M33.7826 45.3193V42.2754H20.7763V45.573L18.4811 47.2852L19.9475 48.7437H34.8027L36.269 47.2852L33.7826 45.3193Z" fill="#00F8F8"/>
<path d="M33.7826 51.7876V48.7437H20.7763V52.0412L18.4811 53.7535L19.9475 55.212H34.8027L36.269 53.7535L33.7826 51.7876Z" fill="#00F8F8"/>
<path d="M28.4682 2.02728L27.3232 0L26.3054 2.02728L25.8601 3.67445L26.1146 4.24462L25.6693 5.76508L25.0968 6.90543L25.5421 7.85571L24.4607 8.99606V10.0731V11.0233L18.9264 15.268L20.3895 16.4083L21.0256 16.5984V19.5759L18.4811 21.7299L20.3895 22.8703H33.748L36.0381 21.4132L33.4936 19.5759V16.4083H34.1933L35.5292 15.0145L30.313 11.0233V10.0731V8.99606L29.2316 7.85571L29.6133 6.90543L29.2316 5.76508L28.4682 4.24462L28.8499 3.67445L28.4682 2.02728Z" fill="#00F8F8"/>
<path d="M33.7826 25.9142V22.8702H20.7763V26.1678L18.4811 27.88L19.9475 29.3386H34.8027L36.269 27.88L33.7826 25.9142Z" fill="#00F8F8"/>
<path d="M33.7826 32.3826V29.3386H20.7763V32.6362L18.4811 34.3484L19.9475 35.807H34.8027L36.269 34.3484L33.7826 32.3826Z" fill="#00F8F8"/>
<path d="M33.7826 38.8509V35.807H20.7763V39.1046L18.4811 40.8168L19.9475 42.2754H34.8027L36.269 40.8168L33.7826 38.8509Z" fill="#00F8F8"/>
<path d="M33.7826 45.3193V42.2754H20.7763V45.573L18.4811 47.2852L19.9475 48.7437H34.8027L36.269 47.2852L33.7826 45.3193Z" fill="#00F8F8"/>
<path d="M33.7826 51.7876V48.7437H20.7763V52.0412L18.4811 53.7535L19.9475 55.212H34.8027L36.269 53.7535L33.7826 51.7876Z" fill="#00F8F8"/>
<path d="M33.7826 59.4518V55.212H20.7763V59.8051L18.4811 62.19L19.9475 64.2215H34.8027L36.269 62.19L33.7826 59.4518Z" fill="#00F8F8"/>
<path fill-rule="evenodd" clip-rule="evenodd" d="M36.0379 0.924072L-4.74026e-05 36.9621L36.0379 73L72.0759 36.9621L36.0379 0.924072ZM69.559 36.9621L36.0379 70.4831L2.51691 36.9621L36.0379 3.44103L69.559 36.9621Z" fill="#00F8F8"/>
<path d="M36.7043 68.6019L34.7081 64.2216H19.9606L18.0052 68.6019H17.557V70.9209H37.1931V68.6019H36.7043Z" fill="#00F8F8"/>
<path d="M28.4682 2.02728L27.3232 0L26.3054 2.02728L25.8601 3.67445L26.1146 4.24462L25.6693 5.76508L25.0968 6.90543L25.5421 7.85571L24.4607 8.99606V10.0731V11.0233L18.9264 15.268L20.3895 16.4083L21.0256 16.5984V19.5759L18.4811 21.7299L20.3895 22.8703H33.748L36.0381 21.4132L33.4936 19.5759V16.4083H34.1933L35.5292 15.0145L30.313 11.0233V10.0731V8.99606L29.2316 7.85571L29.6133 6.90543L29.2316 5.76508L28.4682 4.24462L28.8499 3.67445L28.4682 2.02728Z" fill="#00F8F8"/>
<path d="M33.7826 25.9142V22.8702H20.7763V26.1678L18.4811 27.88L19.9475 29.3386H34.8027L36.269 27.88L33.7826 25.9142Z" fill="#00F8F8"/>
<path d="M33.7826 32.3826V29.3386H20.7763V32.6362L18.4811 34.3484L19.9475 35.807H34.8027L36.269 34.3484L33.7826 32.3826Z" fill="#00F8F8"/>
<path d="M33.7826 38.8509V35.807H20.7763V39.1046L18.4811 40.8168L19.9475 42.2754H34.8027L36.269 40.8168L33.7826 38.8509Z" fill="#00F8F8"/>
<path d="M33.7826 45.3193V42.2754H20.7763V45.573L18.4811 47.2852L19.9475 48.7437H34.8027L36.269 47.2852L33.7826 45.3193Z" fill="#00F8F8"/>
<path d="M33.7826 51.7876V48.7437H20.7763V52.0412L18.4811 53.7535L19.9475 55.212H34.8027L36.269 53.7535L33.7826 51.7876Z" fill="#00F8F8"/>
<path d="M88.8279 60.3086C88.8279 59.9658 89.0264 59.6879 89.2712 59.6879H107.005C107.25 59.6879 107.449 59.9658 107.449 60.3086V60.9292C107.449 61.272 107.25 61.5499 107.005 61.5499H89.2712C89.0264 61.5499 88.8279 61.272 88.8279 60.9292V60.3086Z" fill="#007FFF"/>
<path fill-rule="evenodd" clip-rule="evenodd" d="M56.1874 39.2051L51.5862 34.6039L52.5712 33.6189L57.1724 38.2201L56.1874 39.2051Z" fill="#007FFF"/>
</g>
<defs>
<radialGradient id="paint0_angular_513_195" cx="0" cy="0" r="1" gradientUnits="userSpaceOnUse" gradientTransform="translate(27.3751 67.5712) rotate(90) scale(3.34968 9.81804)">
<stop stop-color="#007FFF" stop-opacity="0.49"/>
<stop offset="0.276042" stop-color="#00F8F8"/>
<stop offset="0.723958" stop-color="#CAE2E2" stop-opacity="0"/>
<stop offset="1" stop-color="white"/>
</radialGradient>
<radialGradient id="paint1_angular_513_195" cx="0" cy="0" r="1" gradientUnits="userSpaceOnUse" gradientTransform="translate(27.2596 11.4351) rotate(90) scale(11.4351 8.77848)">
<stop stop-color="#007FFF" stop-opacity="0.49"/>
<stop offset="0.276042" stop-color="#00F8F8"/>
<stop offset="0.723958" stop-color="#CAE2E2" stop-opacity="0"/>
<stop offset="1" stop-color="white"/>
</radialGradient>
<radialGradient id="paint2_angular_513_195" cx="0" cy="0" r="1" gradientUnits="userSpaceOnUse" gradientTransform="translate(27.3751 26.1044) rotate(90) scale(3.23418 8.89399)">
<stop stop-color="#007FFF" stop-opacity="0.49"/>
<stop offset="0.276042" stop-color="#00F8F8"/>
<stop offset="0.723958" stop-color="#CAE2E2" stop-opacity="0"/>
<stop offset="1" stop-color="white"/>
</radialGradient>
<radialGradient id="paint3_angular_513_195" cx="0" cy="0" r="1" gradientUnits="userSpaceOnUse" gradientTransform="translate(27.3751 32.5728) rotate(90) scale(3.23418 8.89399)">
<stop stop-color="#007FFF" stop-opacity="0.49"/>
<stop offset="0.276042" stop-color="#00F8F8"/>
<stop offset="0.723958" stop-color="#CAE2E2" stop-opacity="0"/>
<stop offset="1" stop-color="white"/>
</radialGradient>
<radialGradient id="paint4_angular_513_195" cx="0" cy="0" r="1" gradientUnits="userSpaceOnUse" gradientTransform="translate(27.3751 39.0412) rotate(90) scale(3.23418 8.89399)">
<stop stop-color="#007FFF" stop-opacity="0.49"/>
<stop offset="0.510417" stop-color="#00F8F8" stop-opacity="0.46"/>
<stop offset="0.723958" stop-color="#CAE2E2" stop-opacity="0.695532"/>
<stop offset="1" stop-color="white"/>
</radialGradient>
<radialGradient id="paint5_angular_513_195" cx="0" cy="0" r="1" gradientUnits="userSpaceOnUse" gradientTransform="translate(27.3751 45.5096) rotate(90) scale(3.23418 8.89399)">
<stop stop-color="#007FFF" stop-opacity="0.49"/>
<stop offset="0.510417" stop-color="#00F8F8" stop-opacity="0.46"/>
<stop offset="0.723958" stop-color="#CAE2E2" stop-opacity="0.695532"/>
<stop offset="1" stop-color="white"/>
</radialGradient>
<radialGradient id="paint6_angular_513_195" cx="0" cy="0" r="1" gradientUnits="userSpaceOnUse" gradientTransform="translate(27.3751 51.9778) rotate(90) scale(3.23418 8.89399)">
<stop stop-color="#007FFF" stop-opacity="0.49"/>
<stop offset="0.510417" stop-color="#00F8F8" stop-opacity="0.46"/>
<stop offset="0.723958" stop-color="#CAE2E2" stop-opacity="0.695532"/>
<stop offset="1" stop-color="white"/>
</radialGradient>
<radialGradient id="paint7_angular_513_195" cx="0" cy="0" r="1" gradientUnits="userSpaceOnUse" gradientTransform="translate(27.3751 59.7168) rotate(90) scale(4.50475 8.89399)">
<stop stop-color="#007FFF" stop-opacity="0.49"/>
<stop offset="0.510417" stop-color="#00F8F8" stop-opacity="0.46"/>
<stop offset="0.723958" stop-color="#CAE2E2" stop-opacity="0.695532"/>
<stop offset="1" stop-color="white"/>
</radialGradient>
<radialGradient id="paint8_angular_513_195" cx="0" cy="0" r="1" gradientUnits="userSpaceOnUse" gradientTransform="translate(27.3751 67.5712) rotate(90) scale(3.34968 9.81804)">
<stop stop-color="#007FFF" stop-opacity="0.49"/>
<stop offset="0.276042" stop-color="#00F8F8"/>
<stop offset="0.723958" stop-color="#CAE2E2" stop-opacity="0"/>
<stop offset="1" stop-color="white"/>
</radialGradient>
<radialGradient id="paint9_angular_513_195" cx="0" cy="0" r="1" gradientUnits="userSpaceOnUse" gradientTransform="translate(27.2596 11.4351) rotate(90) scale(11.4351 8.77848)">
<stop stop-color="#007FFF" stop-opacity="0.49"/>
<stop offset="0.276042" stop-color="#00F8F8"/>
<stop offset="0.723958" stop-color="#CAE2E2" stop-opacity="0"/>
<stop offset="1" stop-color="white"/>
</radialGradient>
<radialGradient id="paint10_angular_513_195" cx="0" cy="0" r="1" gradientUnits="userSpaceOnUse" gradientTransform="translate(27.3751 26.1044) rotate(90) scale(3.23418 8.89399)">
<stop stop-color="#007FFF" stop-opacity="0.49"/>
<stop offset="0.276042" stop-color="#00F8F8"/>
<stop offset="0.723958" stop-color="#CAE2E2" stop-opacity="0"/>
<stop offset="1" stop-color="white"/>
</radialGradient>
<radialGradient id="paint11_angular_513_195" cx="0" cy="0" r="1" gradientUnits="userSpaceOnUse" gradientTransform="translate(27.3751 32.5728) rotate(90) scale(3.23418 8.89399)">
<stop stop-color="#007FFF" stop-opacity="0.49"/>
<stop offset="0.276042" stop-color="#00F8F8"/>
<stop offset="0.723958" stop-color="#CAE2E2" stop-opacity="0"/>
<stop offset="1" stop-color="white"/>
</radialGradient>
<radialGradient id="paint12_angular_513_195" cx="0" cy="0" r="1" gradientUnits="userSpaceOnUse" gradientTransform="translate(27.3751 45.5096) rotate(90) scale(3.23418 8.89399)">
<stop stop-color="#007FFF" stop-opacity="0.49"/>
<stop offset="0.510417" stop-color="#00F8F8" stop-opacity="0.46"/>
<stop offset="0.723958" stop-color="#CAE2E2" stop-opacity="0.695532"/>
<stop offset="1" stop-color="white"/>
</radialGradient>
<radialGradient id="paint13_angular_513_195" cx="0" cy="0" r="1" gradientUnits="userSpaceOnUse" gradientTransform="translate(27.3751 51.9778) rotate(90) scale(3.23418 8.89399)">
<stop stop-color="#007FFF" stop-opacity="0.49"/>
<stop offset="0.510417" stop-color="#00F8F8" stop-opacity="0.46"/>
<stop offset="0.723958" stop-color="#CAE2E2" stop-opacity="0.695532"/>
<stop offset="1" stop-color="white"/>
</radialGradient>
<linearGradient id="paint14_linear_513_195" x1="27.2596" y1="0" x2="27.2596" y2="22.8703" gradientUnits="userSpaceOnUse">
<stop stop-color="#007FFF" stop-opacity="0.49"/>
<stop offset="1" stop-color="#00F8F8" stop-opacity="0"/>
</linearGradient>
<linearGradient id="paint15_linear_513_195" x1="27.3751" y1="22.8702" x2="27.3751" y2="29.3386" gradientUnits="userSpaceOnUse">
<stop stop-color="#007FFF" stop-opacity="0.49"/>
<stop offset="1" stop-color="#00F8F8" stop-opacity="0"/>
</linearGradient>
<linearGradient id="paint16_linear_513_195" x1="27.3751" y1="29.3386" x2="27.3751" y2="35.807" gradientUnits="userSpaceOnUse">
<stop stop-color="#007FFF" stop-opacity="0.49"/>
<stop offset="1" stop-color="#00F8F8" stop-opacity="0"/>
</linearGradient>
<linearGradient id="paint17_linear_513_195" x1="27.3751" y1="35.807" x2="27.3751" y2="42.2754" gradientUnits="userSpaceOnUse">
<stop stop-color="#007FFF" stop-opacity="0.49"/>
<stop offset="1" stop-color="#00F8F8" stop-opacity="0"/>
</linearGradient>
<linearGradient id="paint18_linear_513_195" x1="27.3751" y1="42.2754" x2="27.3751" y2="48.7437" gradientUnits="userSpaceOnUse">
<stop stop-color="#007FFF" stop-opacity="0.49"/>
<stop offset="1" stop-color="#00F8F8" stop-opacity="0"/>
</linearGradient>
<linearGradient id="paint19_linear_513_195" x1="27.3751" y1="48.7437" x2="27.3751" y2="55.212" gradientUnits="userSpaceOnUse">
<stop stop-color="#007FFF" stop-opacity="0.49"/>
<stop offset="1" stop-color="#00F8F8" stop-opacity="0"/>
</linearGradient>
<linearGradient id="paint20_linear_513_195" x1="27.3751" y1="55.212" x2="27.3751" y2="64.2215" gradientUnits="userSpaceOnUse">
<stop stop-color="#007FFF" stop-opacity="0.49"/>
<stop offset="1" stop-color="#00F8F8" stop-opacity="0"/>
</linearGradient>
<linearGradient id="paint21_linear_513_195" x1="36.0379" y1="0.924072" x2="36.0379" y2="73" gradientUnits="userSpaceOnUse">
<stop stop-color="#007FFF" stop-opacity="0.49"/>
<stop offset="1" stop-color="#00F8F8" stop-opacity="0"/>
</linearGradient>
<linearGradient id="paint22_linear_513_195" x1="27.3751" y1="64.2216" x2="27.3751" y2="70.9209" gradientUnits="userSpaceOnUse">
<stop stop-color="#007FFF" stop-opacity="0.49"/>
<stop offset="1" stop-color="#00F8F8" stop-opacity="0"/>
</linearGradient>
<linearGradient id="paint23_linear_513_195" x1="27.2596" y1="0" x2="27.2596" y2="22.8703" gradientUnits="userSpaceOnUse">
<stop stop-color="#007FFF" stop-opacity="0.49"/>
<stop offset="1" stop-color="#00F8F8" stop-opacity="0"/>
</linearGradient>
<linearGradient id="paint24_linear_513_195" x1="27.3751" y1="22.8702" x2="27.3751" y2="29.3386" gradientUnits="userSpaceOnUse">
<stop stop-color="#007FFF" stop-opacity="0.49"/>
<stop offset="1" stop-color="#00F8F8" stop-opacity="0"/>
</linearGradient>
<linearGradient id="paint25_linear_513_195" x1="27.3751" y1="29.3386" x2="27.3751" y2="35.807" gradientUnits="userSpaceOnUse">
<stop stop-color="#007FFF" stop-opacity="0.49"/>
<stop offset="1" stop-color="#00F8F8" stop-opacity="0"/>
</linearGradient>
<linearGradient id="paint26_linear_513_195" x1="27.3751" y1="35.807" x2="27.3751" y2="42.2754" gradientUnits="userSpaceOnUse">
<stop stop-color="#007FFF" stop-opacity="0.49"/>
<stop offset="1" stop-color="#00F8F8" stop-opacity="0"/>
</linearGradient>
<linearGradient id="paint27_linear_513_195" x1="27.3751" y1="42.2754" x2="27.3751" y2="48.7437" gradientUnits="userSpaceOnUse">
<stop stop-color="#007FFF" stop-opacity="0.49"/>
<stop offset="1" stop-color="#00F8F8" stop-opacity="0"/>
</linearGradient>
<linearGradient id="paint28_linear_513_195" x1="27.3751" y1="48.7437" x2="27.3751" y2="55.212" gradientUnits="userSpaceOnUse">
<stop stop-color="#007FFF" stop-opacity="0.49"/>
<stop offset="1" stop-color="#00F8F8" stop-opacity="0"/>
</linearGradient>
<radialGradient id="paint29_angular_513_195" cx="0" cy="0" r="1" gradientUnits="userSpaceOnUse" gradientTransform="translate(27.3751 67.5712) rotate(90) scale(3.34968 9.81804)">
<stop stop-color="#007FFF" stop-opacity="0.49"/>
<stop offset="0.276042" stop-color="#00F8F8"/>
<stop offset="0.723958" stop-color="#CAE2E2" stop-opacity="0"/>
<stop offset="1" stop-color="white"/>
</radialGradient>
<radialGradient id="paint30_angular_513_195" cx="0" cy="0" r="1" gradientUnits="userSpaceOnUse" gradientTransform="translate(27.2596 11.4351) rotate(90) scale(11.4351 8.77848)">
<stop stop-color="#007FFF" stop-opacity="0.49"/>
<stop offset="0.276042" stop-color="#00F8F8"/>
<stop offset="0.723958" stop-color="#CAE2E2" stop-opacity="0"/>
<stop offset="1" stop-color="white"/>
</radialGradient>
<radialGradient id="paint31_angular_513_195" cx="0" cy="0" r="1" gradientUnits="userSpaceOnUse" gradientTransform="translate(27.3751 26.1044) rotate(90) scale(3.23418 8.89399)">
<stop stop-color="#007FFF" stop-opacity="0.49"/>
<stop offset="0.276042" stop-color="#00F8F8"/>
<stop offset="0.723958" stop-color="#CAE2E2" stop-opacity="0"/>
<stop offset="1" stop-color="white"/>
</radialGradient>
<radialGradient id="paint32_angular_513_195" cx="0" cy="0" r="1" gradientUnits="userSpaceOnUse" gradientTransform="translate(27.3751 32.5728) rotate(90) scale(3.23418 8.89399)">
<stop stop-color="#007FFF" stop-opacity="0.49"/>
<stop offset="0.276042" stop-color="#00F8F8"/>
<stop offset="0.723958" stop-color="#CAE2E2" stop-opacity="0"/>
<stop offset="1" stop-color="white"/>
</radialGradient>
<radialGradient id="paint33_angular_513_195" cx="0" cy="0" r="1" gradientUnits="userSpaceOnUse" gradientTransform="translate(27.3751 39.0412) rotate(90) scale(3.23418 8.89399)">
<stop stop-color="#007FFF" stop-opacity="0.49"/>
<stop offset="0.510417" stop-color="#00F8F8" stop-opacity="0.46"/>
<stop offset="0.723958" stop-color="#CAE2E2" stop-opacity="0.695532"/>
<stop offset="1" stop-color="white"/>
</radialGradient>
<radialGradient id="paint34_angular_513_195" cx="0" cy="0" r="1" gradientUnits="userSpaceOnUse" gradientTransform="translate(27.3751 45.5096) rotate(90) scale(3.23418 8.89399)">
<stop stop-color="#007FFF" stop-opacity="0.49"/>
<stop offset="0.510417" stop-color="#00F8F8" stop-opacity="0.46"/>
<stop offset="0.723958" stop-color="#CAE2E2" stop-opacity="0.695532"/>
<stop offset="1" stop-color="white"/>
</radialGradient>
<radialGradient id="paint35_angular_513_195" cx="0" cy="0" r="1" gradientUnits="userSpaceOnUse" gradientTransform="translate(27.3751 51.9778) rotate(90) scale(3.23418 8.89399)">
<stop stop-color="#007FFF" stop-opacity="0.49"/>
<stop offset="0.510417" stop-color="#00F8F8" stop-opacity="0.46"/>
<stop offset="0.723958" stop-color="#CAE2E2" stop-opacity="0.695532"/>
<stop offset="1" stop-color="white"/>
</radialGradient>
<radialGradient id="paint36_angular_513_195" cx="0" cy="0" r="1" gradientUnits="userSpaceOnUse" gradientTransform="translate(27.3751 59.7168) rotate(90) scale(4.50475 8.89399)">
<stop stop-color="#007FFF" stop-opacity="0.49"/>
<stop offset="0.510417" stop-color="#00F8F8" stop-opacity="0.46"/>
<stop offset="0.723958" stop-color="#CAE2E2" stop-opacity="0.695532"/>
<stop offset="1" stop-color="white"/>
</radialGradient>
<radialGradient id="paint37_angular_513_195" cx="0" cy="0" r="1" gradientUnits="userSpaceOnUse" gradientTransform="translate(27.3751 67.5712) rotate(90) scale(3.34968 9.81804)">
<stop stop-color="#007FFF" stop-opacity="0.49"/>
<stop offset="0.276042" stop-color="#00F8F8"/>
<stop offset="0.723958" stop-color="#CAE2E2" stop-opacity="0"/>
<stop offset="1" stop-color="white"/>
</radialGradient>
<radialGradient id="paint38_angular_513_195" cx="0" cy="0" r="1" gradientUnits="userSpaceOnUse" gradientTransform="translate(27.2596 11.4351) rotate(90) scale(11.4351 8.77848)">
<stop stop-color="#007FFF" stop-opacity="0.49"/>
<stop offset="0.276042" stop-color="#00F8F8"/>
<stop offset="0.723958" stop-color="#CAE2E2" stop-opacity="0"/>
<stop offset="1" stop-color="white"/>
</radialGradient>
<radialGradient id="paint39_angular_513_195" cx="0" cy="0" r="1" gradientUnits="userSpaceOnUse" gradientTransform="translate(27.3751 26.1044) rotate(90) scale(3.23418 8.89399)">
<stop stop-color="#007FFF" stop-opacity="0.49"/>
<stop offset="0.276042" stop-color="#00F8F8"/>
<stop offset="0.723958" stop-color="#CAE2E2" stop-opacity="0"/>
<stop offset="1" stop-color="white"/>
</radialGradient>
<radialGradient id="paint40_angular_513_195" cx="0" cy="0" r="1" gradientUnits="userSpaceOnUse" gradientTransform="translate(27.3751 32.5728) rotate(90) scale(3.23418 8.89399)">
<stop stop-color="#007FFF" stop-opacity="0.49"/>
<stop offset="0.276042" stop-color="#00F8F8"/>
<stop offset="0.723958" stop-color="#CAE2E2" stop-opacity="0"/>
<stop offset="1" stop-color="white"/>
</radialGradient>
<radialGradient id="paint41_angular_513_195" cx="0" cy="0" r="1" gradientUnits="userSpaceOnUse" gradientTransform="translate(27.3751 45.5096) rotate(90) scale(3.23418 8.89399)">
<stop stop-color="#007FFF" stop-opacity="0.49"/>
<stop offset="0.510417" stop-color="#00F8F8" stop-opacity="0.46"/>
<stop offset="0.723958" stop-color="#CAE2E2" stop-opacity="0.695532"/>
<stop offset="1" stop-color="white"/>
</radialGradient>
<radialGradient id="paint42_angular_513_195" cx="0" cy="0" r="1" gradientUnits="userSpaceOnUse" gradientTransform="translate(27.3751 51.9778) rotate(90) scale(3.23418 8.89399)">
<stop stop-color="#007FFF" stop-opacity="0.49"/>
<stop offset="0.510417" stop-color="#00F8F8" stop-opacity="0.46"/>
<stop offset="0.723958" stop-color="#CAE2E2" stop-opacity="0.695532"/>
<stop offset="1" stop-color="white"/>
</radialGradient>
<linearGradient id="paint43_linear_513_195" x1="27.2596" y1="0" x2="27.2596" y2="22.8703" gradientUnits="userSpaceOnUse">
<stop stop-color="#007FFF" stop-opacity="0.49"/>
<stop offset="1" stop-color="#00F8F8" stop-opacity="0"/>
</linearGradient>
<linearGradient id="paint44_linear_513_195" x1="27.3751" y1="22.8702" x2="27.3751" y2="29.3386" gradientUnits="userSpaceOnUse">
<stop stop-color="#007FFF" stop-opacity="0.49"/>
<stop offset="1" stop-color="#00F8F8" stop-opacity="0"/>
</linearGradient>
<linearGradient id="paint45_linear_513_195" x1="27.3751" y1="29.3386" x2="27.3751" y2="35.807" gradientUnits="userSpaceOnUse">
<stop stop-color="#007FFF" stop-opacity="0.49"/>
<stop offset="1" stop-color="#00F8F8" stop-opacity="0"/>
</linearGradient>
<linearGradient id="paint46_linear_513_195" x1="27.3751" y1="35.807" x2="27.3751" y2="42.2754" gradientUnits="userSpaceOnUse">
<stop stop-color="#007FFF" stop-opacity="0.49"/>
<stop offset="1" stop-color="#00F8F8" stop-opacity="0"/>
</linearGradient>
<linearGradient id="paint47_linear_513_195" x1="27.3751" y1="42.2754" x2="27.3751" y2="48.7437" gradientUnits="userSpaceOnUse">
<stop stop-color="#007FFF" stop-opacity="0.49"/>
<stop offset="1" stop-color="#00F8F8" stop-opacity="0"/>
</linearGradient>
<linearGradient id="paint48_linear_513_195" x1="27.3751" y1="48.7437" x2="27.3751" y2="55.212" gradientUnits="userSpaceOnUse">
<stop stop-color="#007FFF" stop-opacity="0.49"/>
<stop offset="1" stop-color="#00F8F8" stop-opacity="0"/>
</linearGradient>
<linearGradient id="paint49_linear_513_195" x1="27.3751" y1="55.212" x2="27.3751" y2="64.2215" gradientUnits="userSpaceOnUse">
<stop stop-color="#007FFF" stop-opacity="0.49"/>
<stop offset="1" stop-color="#00F8F8" stop-opacity="0"/>
</linearGradient>
<linearGradient id="paint50_linear_513_195" x1="36.0379" y1="0.924072" x2="36.0379" y2="73" gradientUnits="userSpaceOnUse">
<stop stop-color="#007FFF" stop-opacity="0.49"/>
<stop offset="1" stop-color="#00F8F8" stop-opacity="0"/>
</linearGradient>
<linearGradient id="paint51_linear_513_195" x1="27.3751" y1="64.2216" x2="27.3751" y2="70.9209" gradientUnits="userSpaceOnUse">
<stop stop-color="#007FFF" stop-opacity="0.49"/>
<stop offset="1" stop-color="#00F8F8" stop-opacity="0"/>
</linearGradient>
<linearGradient id="paint52_linear_513_195" x1="27.2596" y1="0" x2="27.2596" y2="22.8703" gradientUnits="userSpaceOnUse">
<stop stop-color="#007FFF" stop-opacity="0.49"/>
<stop offset="1" stop-color="#00F8F8" stop-opacity="0"/>
</linearGradient>
<linearGradient id="paint53_linear_513_195" x1="27.3751" y1="22.8702" x2="27.3751" y2="29.3386" gradientUnits="userSpaceOnUse">
<stop stop-color="#007FFF" stop-opacity="0.49"/>
<stop offset="1" stop-color="#00F8F8" stop-opacity="0"/>
</linearGradient>
<linearGradient id="paint54_linear_513_195" x1="27.3751" y1="29.3386" x2="27.3751" y2="35.807" gradientUnits="userSpaceOnUse">
<stop stop-color="#007FFF" stop-opacity="0.49"/>
<stop offset="1" stop-color="#00F8F8" stop-opacity="0"/>
</linearGradient>
<linearGradient id="paint55_linear_513_195" x1="27.3751" y1="35.807" x2="27.3751" y2="42.2754" gradientUnits="userSpaceOnUse">
<stop stop-color="#007FFF" stop-opacity="0.49"/>
<stop offset="1" stop-color="#00F8F8" stop-opacity="0"/>
</linearGradient>
<linearGradient id="paint56_linear_513_195" x1="27.3751" y1="42.2754" x2="27.3751" y2="48.7437" gradientUnits="userSpaceOnUse">
<stop stop-color="#007FFF" stop-opacity="0.49"/>
<stop offset="1" stop-color="#00F8F8" stop-opacity="0"/>
</linearGradient>
<linearGradient id="paint57_linear_513_195" x1="27.3751" y1="48.7437" x2="27.3751" y2="55.212" gradientUnits="userSpaceOnUse">
<stop stop-color="#007FFF" stop-opacity="0.49"/>
<stop offset="1" stop-color="#00F8F8" stop-opacity="0"/>
</linearGradient>
</defs>
</svg>
