<svg width="16" height="16" viewBox="0 0 16 16" fill="none" xmlns="http://www.w3.org/2000/svg">
    <g clip-path="url(#clip0_448_6)">
        <mask id="mask0_448_6" style="mask-type:luminance" maskUnits="userSpaceOnUse" x="0" y="0" width="16" height="16">
            <path d="M16 0H0V16H16V0Z" fill="white"/>
        </mask>
        <g mask="url(#mask0_448_6)">
            <path d="M8.04815 2.24101C9.01215 1.53201 10.1271 1.00301 11.3731 1.00001C11.9826 0.998031 12.5863 1.11675 13.1496 1.34931C13.7129 1.58188 14.2246 1.92368 14.6551 2.35501C15.0651 2.76301 15.4121 3.21501 15.6511 3.78301C15.8891 4.35101 15.9991 4.98901 15.9981 5.75101C15.9981 7.94401 14.4931 10.005 12.9171 11.613C11.4211 13.139 9.70415 14.409 8.66815 15.176L8.44814 15.339C8.31884 15.4353 8.16189 15.4874 8.00064 15.4874C7.83939 15.4874 7.68245 15.4353 7.55315 15.339L7.33215 15.176C6.29615 14.409 4.57915 13.139 3.08315 11.613C1.51015 10.008 0.00714522 7.95201 0.00214522 5.76201C-0.0170781 5.13181 0.0930624 4.50435 0.325769 3.91837C0.558475 3.33239 0.908808 2.80032 1.35515 2.35501C3.12315 0.585007 6.22315 0.538007 8.04815 2.24101ZM6.89515 3.22401C5.64515 2.19101 3.57415 2.25701 2.41515 3.41501C2.10951 3.71973 1.87052 4.08464 1.71336 4.4866C1.55619 4.88855 1.48426 5.31879 1.50215 5.75001C1.50215 7.30601 2.61115 8.99001 4.15415 10.563C5.46315 11.898 6.96014 13.032 8.00014 13.805C8.35314 13.543 8.75814 13.24 9.19114 12.9L7.86515 11.677C7.71901 11.542 7.63249 11.3545 7.62461 11.1557C7.61674 10.9569 7.68815 10.7631 7.82315 10.617C7.95814 10.4709 8.14566 10.3844 8.34445 10.3765C8.54323 10.3686 8.73701 10.44 8.88315 10.575L10.3631 11.941C10.6911 11.66 11.0221 11.364 11.3471 11.054L9.99014 9.80201C9.84388 9.66688 9.75728 9.47918 9.7494 9.28021C9.74153 9.08123 9.81302 8.88727 9.94814 8.74101C10.0833 8.59474 10.271 8.50814 10.4699 8.50027C10.6689 8.49239 10.8629 8.56388 11.0091 8.69901L12.3931 9.97901C12.6881 9.65001 12.9591 9.31801 13.2031 8.98401L12.9201 8.70001L11.7531 7.53201C11.0791 6.86101 9.97315 6.86801 9.27915 7.56201C9.01115 7.83101 8.74115 8.09901 8.47715 8.35901C7.58415 9.24101 6.15815 9.20201 5.29215 8.32701C4.94615 7.97701 4.59915 7.63001 4.24915 7.28001C4.11609 7.14663 4.03811 6.96807 4.03069 6.77982C4.02328 6.59157 4.08699 6.40743 4.20915 6.26401C4.37115 6.07301 4.54515 5.86301 4.72915 5.64101C5.34915 4.89301 6.08515 4.00401 6.89515 3.22401ZM14.0071 7.66601C14.3201 7.01601 14.4981 6.37301 14.4981 5.75001C14.4981 5.13601 14.4101 4.70401 14.2681 4.36401C14.1251 4.02501 13.9111 3.73101 13.5951 3.41501C13.3044 3.12326 12.9586 2.89215 12.5779 2.73508C12.1972 2.57801 11.789 2.49811 11.3771 2.50001C10.2851 2.50301 9.21214 3.12701 8.15114 4.10201C7.32814 4.85701 6.59715 5.73901 5.92315 6.55201L5.79615 6.70601L6.35815 7.27201C6.497 7.41576 6.68719 7.49858 6.88701 7.50233C7.08684 7.50608 7.28 7.43045 7.42415 7.29201L8.21815 6.50201C9.47615 5.24401 11.5301 5.19201 12.8121 6.47001C13.2081 6.86401 13.6041 7.26101 13.9851 7.64301L14.0071 7.66601Z" fill="#E3E3E3"/>
        </g>
    </g>
    <defs>
        <clipPath id="clip0_448_6">
            <rect width="16" height="16" fill="white"/>
        </clipPath>
    </defs>
</svg>
