<svg width="100%" height="100%" viewBox="0 0 691 260" fill="none" xmlns="http://www.w3.org/2000/svg">
    <rect width="691" height="171.5" transform="translate(0 9.25)" fill="#B3B3B3" fill-opacity="0.12"/>
    <path d="M292.118 94.426C292.118 92.658 292.517 91.072 293.314 89.668C294.111 88.2467 295.195 87.1373 296.564 86.34C297.951 85.5427 299.485 85.144 301.166 85.144C303.142 85.144 304.867 85.6207 306.34 86.574C307.813 87.5273 308.888 88.8793 309.564 90.63H306.73C306.227 89.538 305.499 88.6973 304.546 88.108C303.61 87.5187 302.483 87.224 301.166 87.224C299.901 87.224 298.765 87.5187 297.76 88.108C296.755 88.6973 295.966 89.538 295.394 90.63C294.822 91.7047 294.536 92.97 294.536 94.426C294.536 95.8647 294.822 97.13 295.394 98.222C295.966 99.2967 296.755 100.129 297.76 100.718C298.765 101.307 299.901 101.602 301.166 101.602C302.483 101.602 303.61 101.316 304.546 100.744C305.499 100.155 306.227 99.314 306.73 98.222H309.564C308.888 99.9553 307.813 101.299 306.34 102.252C304.867 103.188 303.142 103.656 301.166 103.656C299.485 103.656 297.951 103.266 296.564 102.486C295.195 101.689 294.111 100.588 293.314 99.184C292.517 97.78 292.118 96.194 292.118 94.426ZM315.452 84.26V103.5H313.086V84.26H315.452ZM320.706 86.938C320.256 86.938 319.874 86.782 319.562 86.47C319.25 86.158 319.094 85.7767 319.094 85.326C319.094 84.8753 319.25 84.494 319.562 84.182C319.874 83.87 320.256 83.714 320.706 83.714C321.14 83.714 321.504 83.87 321.798 84.182C322.11 84.494 322.266 84.8753 322.266 85.326C322.266 85.7767 322.11 86.158 321.798 86.47C321.504 86.782 321.14 86.938 320.706 86.938ZM321.85 89.252V103.5H319.484V89.252H321.85ZM324.999 96.35C324.999 94.8767 325.294 93.594 325.883 92.502C326.472 91.3927 327.287 90.5347 328.327 89.928C329.384 89.3213 330.589 89.018 331.941 89.018C333.692 89.018 335.13 89.4427 336.257 90.292C337.401 91.1413 338.155 92.32 338.519 93.828H335.971C335.728 92.9613 335.252 92.2767 334.541 91.774C333.848 91.2713 332.981 91.02 331.941 91.02C330.589 91.02 329.497 91.488 328.665 92.424C327.833 93.3427 327.417 94.6513 327.417 96.35C327.417 98.066 327.833 99.392 328.665 100.328C329.497 101.264 330.589 101.732 331.941 101.732C332.981 101.732 333.848 101.489 334.541 101.004C335.234 100.519 335.711 99.8253 335.971 98.924H338.519C338.138 100.38 337.375 101.55 336.231 102.434C335.087 103.301 333.657 103.734 331.941 103.734C330.589 103.734 329.384 103.431 328.327 102.824C327.287 102.217 326.472 101.359 325.883 100.25C325.294 99.1407 324.999 97.8407 324.999 96.35ZM349.632 103.5L344.042 97.208V103.5H341.676V84.26H344.042V95.57L349.528 89.252H352.83L346.122 96.35L352.856 103.5H349.632ZM380.37 85.508V103.5H378.004V90.084L372.024 103.5H370.36L364.354 90.058V103.5H361.988V85.508H364.536L371.192 100.38L377.848 85.508H380.37ZM397.383 95.83C397.383 96.2807 397.357 96.7573 397.305 97.26H385.917C386.004 98.664 386.48 99.7647 387.347 100.562C388.231 101.342 389.297 101.732 390.545 101.732C391.568 101.732 392.417 101.498 393.093 101.03C393.786 100.545 394.272 99.9033 394.549 99.106H397.097C396.716 100.475 395.953 101.593 394.809 102.46C393.665 103.309 392.244 103.734 390.545 103.734C389.193 103.734 387.98 103.431 386.905 102.824C385.848 102.217 385.016 101.359 384.409 100.25C383.802 99.1233 383.499 97.8233 383.499 96.35C383.499 94.8767 383.794 93.5853 384.383 92.476C384.972 91.3667 385.796 90.5173 386.853 89.928C387.928 89.3213 389.158 89.018 390.545 89.018C391.897 89.018 393.093 89.3127 394.133 89.902C395.173 90.4913 395.97 91.306 396.525 92.346C397.097 93.3687 397.383 94.53 397.383 95.83ZM394.939 95.336C394.939 94.4347 394.74 93.6633 394.341 93.022C393.942 92.3633 393.396 91.8693 392.703 91.54C392.027 91.1933 391.273 91.02 390.441 91.02C389.245 91.02 388.222 91.4013 387.373 92.164C386.541 92.9267 386.064 93.984 385.943 95.336H394.939Z" fill="#C8C8C8"/>
    <rect x="259" y="63.5" width="172" height="61" stroke="#007FFF" stroke-width="2"/>
    <path d="M431 62.5V125.5" stroke="#DB1515" stroke-width="2"/>
    <path d="M431 124.5L258 124.5" stroke="#767676" stroke-width="2"/>
    <path d="M290 43L290 53" stroke="#00DEDE"/>
    <path d="M290 48H398" stroke="#00DEDE"/>
    <path d="M398 43L398 53" stroke="#00DEDE"/>
    <path d="M315.184 135.689C315.418 135.282 315.765 134.944 316.224 134.675C316.692 134.398 317.234 134.259 317.849 134.259C318.482 134.259 319.054 134.411 319.565 134.714C320.085 135.017 320.492 135.446 320.787 136.001C321.082 136.547 321.229 137.184 321.229 137.912C321.229 138.631 321.082 139.273 320.787 139.836C320.492 140.399 320.085 140.837 319.565 141.149C319.054 141.461 318.482 141.617 317.849 141.617C317.242 141.617 316.705 141.483 316.237 141.214C315.778 140.937 315.427 140.594 315.184 140.187V144.88H314.001V134.376H315.184V135.689ZM320.02 137.912C320.02 137.375 319.912 136.907 319.695 136.508C319.478 136.109 319.184 135.806 318.811 135.598C318.447 135.39 318.044 135.286 317.602 135.286C317.169 135.286 316.766 135.394 316.393 135.611C316.029 135.819 315.734 136.127 315.509 136.534C315.292 136.933 315.184 137.396 315.184 137.925C315.184 138.462 315.292 138.935 315.509 139.342C315.734 139.741 316.029 140.048 316.393 140.265C316.766 140.473 317.169 140.577 317.602 140.577C318.044 140.577 318.447 140.473 318.811 140.265C319.184 140.048 319.478 139.741 319.695 139.342C319.912 138.935 320.02 138.458 320.02 137.912ZM322.344 137.912C322.344 137.184 322.491 136.547 322.786 136.001C323.081 135.446 323.484 135.017 323.995 134.714C324.515 134.411 325.091 134.259 325.724 134.259C326.348 134.259 326.89 134.393 327.349 134.662C327.808 134.931 328.151 135.269 328.376 135.676V134.376H329.572V141.5H328.376V140.174C328.142 140.59 327.791 140.937 327.323 141.214C326.864 141.483 326.326 141.617 325.711 141.617C325.078 141.617 324.506 141.461 323.995 141.149C323.484 140.837 323.081 140.399 322.786 139.836C322.491 139.273 322.344 138.631 322.344 137.912ZM328.376 137.925C328.376 137.388 328.268 136.92 328.051 136.521C327.834 136.122 327.54 135.819 327.167 135.611C326.803 135.394 326.4 135.286 325.958 135.286C325.516 135.286 325.113 135.39 324.749 135.598C324.385 135.806 324.095 136.109 323.878 136.508C323.661 136.907 323.553 137.375 323.553 137.912C323.553 138.458 323.661 138.935 323.878 139.342C324.095 139.741 324.385 140.048 324.749 140.265C325.113 140.473 325.516 140.577 325.958 140.577C326.4 140.577 326.803 140.473 327.167 140.265C327.54 140.048 327.834 139.741 328.051 139.342C328.268 138.935 328.376 138.462 328.376 137.925ZM331.129 137.912C331.129 137.184 331.277 136.547 331.571 136.001C331.866 135.446 332.269 135.017 332.78 134.714C333.3 134.411 333.881 134.259 334.522 134.259C335.077 134.259 335.593 134.389 336.069 134.649C336.546 134.9 336.91 135.234 337.161 135.65V131.88H338.357V141.5H337.161V140.161C336.927 140.586 336.581 140.937 336.121 141.214C335.662 141.483 335.125 141.617 334.509 141.617C333.877 141.617 333.3 141.461 332.78 141.149C332.269 140.837 331.866 140.399 331.571 139.836C331.277 139.273 331.129 138.631 331.129 137.912ZM337.161 137.925C337.161 137.388 337.053 136.92 336.836 136.521C336.62 136.122 336.325 135.819 335.952 135.611C335.588 135.394 335.185 135.286 334.743 135.286C334.301 135.286 333.898 135.39 333.534 135.598C333.17 135.806 332.88 136.109 332.663 136.508C332.447 136.907 332.338 137.375 332.338 137.912C332.338 138.458 332.447 138.935 332.663 139.342C332.88 139.741 333.17 140.048 333.534 140.265C333.898 140.473 334.301 140.577 334.743 140.577C335.185 140.577 335.588 140.473 335.952 140.265C336.325 140.048 336.62 139.741 336.836 139.342C337.053 138.935 337.161 138.462 337.161 137.925ZM339.914 137.912C339.914 137.184 340.062 136.547 340.356 136.001C340.651 135.446 341.054 135.017 341.565 134.714C342.085 134.411 342.666 134.259 343.307 134.259C343.862 134.259 344.378 134.389 344.854 134.649C345.331 134.9 345.695 135.234 345.946 135.65V131.88H347.142V141.5H345.946V140.161C345.712 140.586 345.366 140.937 344.906 141.214C344.447 141.483 343.91 141.617 343.294 141.617C342.662 141.617 342.085 141.461 341.565 141.149C341.054 140.837 340.651 140.399 340.356 139.836C340.062 139.273 339.914 138.631 339.914 137.912ZM345.946 137.925C345.946 137.388 345.838 136.92 345.621 136.521C345.405 136.122 345.11 135.819 344.737 135.611C344.373 135.394 343.97 135.286 343.528 135.286C343.086 135.286 342.683 135.39 342.319 135.598C341.955 135.806 341.665 136.109 341.448 136.508C341.232 136.907 341.123 137.375 341.123 137.912C341.123 138.458 341.232 138.935 341.448 139.342C341.665 139.741 341.955 140.048 342.319 140.265C342.683 140.473 343.086 140.577 343.528 140.577C343.97 140.577 344.373 140.473 344.737 140.265C345.11 140.048 345.405 139.741 345.621 139.342C345.838 138.935 345.946 138.462 345.946 137.925ZM349.753 133.219C349.527 133.219 349.337 133.141 349.181 132.985C349.025 132.829 348.947 132.638 348.947 132.413C348.947 132.188 349.025 131.997 349.181 131.841C349.337 131.685 349.527 131.607 349.753 131.607C349.969 131.607 350.151 131.685 350.299 131.841C350.455 131.997 350.533 132.188 350.533 132.413C350.533 132.638 350.455 132.829 350.299 132.985C350.151 133.141 349.969 133.219 349.753 133.219ZM350.325 134.376V141.5H349.142V134.376H350.325ZM355.812 134.246C356.679 134.246 357.381 134.51 357.918 135.039C358.455 135.559 358.724 136.313 358.724 137.301V141.5H357.554V137.47C357.554 136.759 357.376 136.218 357.021 135.845C356.666 135.464 356.18 135.273 355.565 135.273C354.941 135.273 354.443 135.468 354.07 135.858C353.706 136.248 353.524 136.816 353.524 137.561V141.5H352.341V134.376H353.524V135.39C353.758 135.026 354.074 134.744 354.473 134.545C354.88 134.346 355.327 134.246 355.812 134.246ZM363.594 134.259C364.21 134.259 364.747 134.393 365.206 134.662C365.674 134.931 366.021 135.269 366.246 135.676V134.376H367.442V141.656C367.442 142.306 367.304 142.882 367.026 143.385C366.749 143.896 366.35 144.295 365.83 144.581C365.319 144.867 364.721 145.01 364.036 145.01C363.1 145.01 362.32 144.789 361.696 144.347C361.072 143.905 360.704 143.303 360.591 142.54H361.761C361.891 142.973 362.16 143.32 362.567 143.58C362.975 143.849 363.464 143.983 364.036 143.983C364.686 143.983 365.215 143.779 365.622 143.372C366.038 142.965 366.246 142.393 366.246 141.656V140.161C366.012 140.577 365.666 140.924 365.206 141.201C364.747 141.478 364.21 141.617 363.594 141.617C362.962 141.617 362.385 141.461 361.865 141.149C361.354 140.837 360.951 140.399 360.656 139.836C360.362 139.273 360.214 138.631 360.214 137.912C360.214 137.184 360.362 136.547 360.656 136.001C360.951 135.446 361.354 135.017 361.865 134.714C362.385 134.411 362.962 134.259 363.594 134.259ZM366.246 137.925C366.246 137.388 366.138 136.92 365.921 136.521C365.705 136.122 365.41 135.819 365.037 135.611C364.673 135.394 364.27 135.286 363.828 135.286C363.386 135.286 362.983 135.39 362.619 135.598C362.255 135.806 361.965 136.109 361.748 136.508C361.532 136.907 361.423 137.375 361.423 137.912C361.423 138.458 361.532 138.935 361.748 139.342C361.965 139.741 362.255 140.048 362.619 140.265C362.983 140.473 363.386 140.577 363.828 140.577C364.27 140.577 364.673 140.473 365.037 140.265C365.41 140.048 365.705 139.741 365.921 139.342C366.138 138.935 366.246 138.462 366.246 137.925Z" fill="#00DEDE"/>
    <path d="M258 130.5L258 140.5" stroke="#00DEDE"/>
    <path d="M258 135.5H291" stroke="#00DEDE"/>
    <path d="M291 130.5L291 140.5" stroke="#00DEDE"/>
    <path d="M399 130.5L399 140.5" stroke="#00DEDE"/>
    <path d="M399 135.5H432" stroke="#00DEDE"/>
    <path d="M432 130.5L432 140.5" stroke="#00DEDE"/>
    <path d="M445 65.5L435 65.5" stroke="#00DEDE"/>
    <path d="M440 65.5L440 82.5" stroke="#00DEDE"/>
    <path d="M445 82.5L435 82.5" stroke="#00DEDE"/>
    <path d="M255 65.5L245 65.5" stroke="#00DEDE"/>
    <path d="M250 65.5L250 124.5" stroke="#00DEDE"/>
    <path d="M255 124.5L245 124.5" stroke="#00DEDE"/>
    <path d="M259 62.5V125.5" stroke="#FDB614" stroke-width="2"/>
    <path d="M6.556 218.904C5.544 218.904 4.63467 218.728 3.828 218.376C3.036 218.009 2.41267 217.511 1.958 216.88C1.50333 216.235 1.26867 215.494 1.254 214.658H3.388C3.46133 215.377 3.75467 215.985 4.268 216.484C4.796 216.968 5.55867 217.21 6.556 217.21C7.50933 217.21 8.25733 216.975 8.8 216.506C9.35733 216.022 9.636 215.406 9.636 214.658C9.636 214.071 9.47467 213.595 9.152 213.228C8.82933 212.861 8.426 212.583 7.942 212.392C7.458 212.201 6.80533 211.996 5.984 211.776C4.972 211.512 4.158 211.248 3.542 210.984C2.94067 210.72 2.42 210.309 1.98 209.752C1.55467 209.18 1.342 208.417 1.342 207.464C1.342 206.628 1.55467 205.887 1.98 205.242C2.40533 204.597 2.99933 204.098 3.762 203.746C4.53933 203.394 5.42667 203.218 6.424 203.218C7.86133 203.218 9.03467 203.577 9.944 204.296C10.868 205.015 11.3887 205.968 11.506 207.156H9.306C9.23267 206.569 8.92467 206.056 8.382 205.616C7.83933 205.161 7.12067 204.934 6.226 204.934C5.39 204.934 4.708 205.154 4.18 205.594C3.652 206.019 3.388 206.621 3.388 207.398C3.388 207.955 3.542 208.41 3.85 208.762C4.17267 209.114 4.56133 209.385 5.016 209.576C5.48533 209.752 6.138 209.957 6.974 210.192C7.986 210.471 8.8 210.749 9.416 211.028C10.032 211.292 10.56 211.71 11 212.282C11.44 212.839 11.66 213.602 11.66 214.57C11.66 215.318 11.462 216.022 11.066 216.682C10.67 217.342 10.0833 217.877 9.306 218.288C8.52867 218.699 7.612 218.904 6.556 218.904ZM15.6401 204.736C15.2588 204.736 14.9361 204.604 14.6721 204.34C14.4081 204.076 14.2761 203.753 14.2761 203.372C14.2761 202.991 14.4081 202.668 14.6721 202.404C14.9361 202.14 15.2588 202.008 15.6401 202.008C16.0068 202.008 16.3148 202.14 16.5641 202.404C16.8281 202.668 16.9601 202.991 16.9601 203.372C16.9601 203.753 16.8281 204.076 16.5641 204.34C16.3148 204.604 16.0068 204.736 15.6401 204.736ZM16.6081 206.694V218.75H14.6061V206.694H16.6081ZM21.5162 217.1H27.4342V218.75H19.2282V217.1L25.0802 208.322H19.2722V206.694H27.3902V208.322L21.5162 217.1ZM41.0319 212.26C41.0319 212.641 41.0099 213.045 40.9659 213.47H31.3299C31.4032 214.658 31.8066 215.589 32.5399 216.264C33.2879 216.924 34.1899 217.254 35.2459 217.254C36.1112 217.254 36.8299 217.056 37.4019 216.66C37.9886 216.249 38.3992 215.707 38.6339 215.032H40.7899C40.4672 216.191 39.8219 217.137 38.8539 217.87C37.8859 218.589 36.6832 218.948 35.2459 218.948C34.1019 218.948 33.0752 218.691 32.1659 218.178C31.2712 217.665 30.5672 216.939 30.0539 216C29.5406 215.047 29.2839 213.947 29.2839 212.7C29.2839 211.453 29.5332 210.361 30.0319 209.422C30.5306 208.483 31.2272 207.765 32.1219 207.266C33.0312 206.753 34.0726 206.496 35.2459 206.496C36.3899 206.496 37.4019 206.745 38.2819 207.244C39.1619 207.743 39.8366 208.432 40.3059 209.312C40.7899 210.177 41.0319 211.16 41.0319 212.26ZM38.9639 211.842C38.9639 211.079 38.7952 210.427 38.4579 209.884C38.1206 209.327 37.6586 208.909 37.0719 208.63C36.4999 208.337 35.8619 208.19 35.1579 208.19C34.1459 208.19 33.2806 208.513 32.5619 209.158C31.8579 209.803 31.4546 210.698 31.3519 211.842H38.9639Z" fill="#6A6A79"/>
    <path d="M0.57 235.15V233.905H3.39V244.75H2.01V235.15H0.57ZM5.56969 243.655C6.83969 242.635 7.83469 241.8 8.55469 241.15C9.27469 240.49 9.87969 239.805 10.3697 239.095C10.8697 238.375 11.1197 237.67 11.1197 236.98C11.1197 236.33 10.9597 235.82 10.6397 235.45C10.3297 235.07 9.82469 234.88 9.12469 234.88C8.44469 234.88 7.91469 235.095 7.53469 235.525C7.16469 235.945 6.96469 236.51 6.93469 237.22H5.61469C5.65469 236.1 5.99469 235.235 6.63469 234.625C7.27469 234.015 8.09969 233.71 9.10969 233.71C10.1397 233.71 10.9547 233.995 11.5547 234.565C12.1647 235.135 12.4697 235.92 12.4697 236.92C12.4697 237.75 12.2197 238.56 11.7197 239.35C11.2297 240.13 10.6697 240.82 10.0397 241.42C9.40969 242.01 8.60469 242.7 7.62469 243.49H12.7847V244.63H5.56969V243.655ZM15.9526 238.045C16.2226 237.575 16.6226 237.185 17.1526 236.875C17.6926 236.555 18.3176 236.395 19.0276 236.395C19.7576 236.395 20.4176 236.57 21.0076 236.92C21.6076 237.27 22.0776 237.765 22.4176 238.405C22.7576 239.035 22.9276 239.77 22.9276 240.61C22.9276 241.44 22.7576 242.18 22.4176 242.83C22.0776 243.48 21.6076 243.985 21.0076 244.345C20.4176 244.705 19.7576 244.885 19.0276 244.885C18.3276 244.885 17.7076 244.73 17.1676 244.42C16.6376 244.1 16.2326 243.705 15.9526 243.235V248.65H14.5876V236.53H15.9526V238.045ZM21.5326 240.61C21.5326 239.99 21.4076 239.45 21.1576 238.99C20.9076 238.53 20.5676 238.18 20.1376 237.94C19.7176 237.7 19.2526 237.58 18.7426 237.58C18.2426 237.58 17.7776 237.705 17.3476 237.955C16.9276 238.195 16.5876 238.55 16.3276 239.02C16.0776 239.48 15.9526 240.015 15.9526 240.625C15.9526 241.245 16.0776 241.79 16.3276 242.26C16.5876 242.72 16.9276 243.075 17.3476 243.325C17.7776 243.565 18.2426 243.685 18.7426 243.685C19.2526 243.685 19.7176 243.565 20.1376 243.325C20.5676 243.075 20.9076 242.72 21.1576 242.26C21.4076 241.79 21.5326 241.24 21.5326 240.61ZM29.0143 244.75L27.0643 241.69L25.1893 244.75H23.7643L26.4193 240.67L23.7643 236.53H25.3093L27.2593 239.575L29.1193 236.53H30.5443L27.9043 240.595L30.5593 244.75H29.0143Z" fill="#007FFF"/>
    <path d="M70.0622 235.15V233.905H72.8822V244.75H71.5022V235.15H70.0622ZM75.0619 243.655C76.3319 242.635 77.3269 241.8 78.0469 241.15C78.7669 240.49 79.3719 239.805 79.8619 239.095C80.3619 238.375 80.6119 237.67 80.6119 236.98C80.6119 236.33 80.4519 235.82 80.1319 235.45C79.8219 235.07 79.3169 234.88 78.6169 234.88C77.9369 234.88 77.4069 235.095 77.0269 235.525C76.6569 235.945 76.4569 236.51 76.4269 237.22H75.1069C75.1469 236.1 75.4869 235.235 76.1269 234.625C76.7669 234.015 77.5919 233.71 78.6019 233.71C79.6319 233.71 80.4469 233.995 81.0469 234.565C81.6569 235.135 81.9619 235.92 81.9619 236.92C81.9619 237.75 81.7119 238.56 81.2119 239.35C80.7219 240.13 80.1619 240.82 79.5319 241.42C78.9019 242.01 78.0969 242.7 77.1169 243.49H82.2769V244.63H75.0619V243.655ZM85.4448 238.045C85.7148 237.575 86.1148 237.185 86.6448 236.875C87.1848 236.555 87.8098 236.395 88.5198 236.395C89.2498 236.395 89.9098 236.57 90.4998 236.92C91.0998 237.27 91.5698 237.765 91.9098 238.405C92.2498 239.035 92.4198 239.77 92.4198 240.61C92.4198 241.44 92.2498 242.18 91.9098 242.83C91.5698 243.48 91.0998 243.985 90.4998 244.345C89.9098 244.705 89.2498 244.885 88.5198 244.885C87.8198 244.885 87.1998 244.73 86.6598 244.42C86.1298 244.1 85.7248 243.705 85.4448 243.235V248.65H84.0798V236.53H85.4448V238.045ZM91.0248 240.61C91.0248 239.99 90.8998 239.45 90.6498 238.99C90.3998 238.53 90.0598 238.18 89.6298 237.94C89.2098 237.7 88.7448 237.58 88.2348 237.58C87.7348 237.58 87.2698 237.705 86.8398 237.955C86.4198 238.195 86.0798 238.55 85.8198 239.02C85.5698 239.48 85.4448 240.015 85.4448 240.625C85.4448 241.245 85.5698 241.79 85.8198 242.26C86.0798 242.72 86.4198 243.075 86.8398 243.325C87.2698 243.565 87.7348 243.685 88.2348 243.685C88.7448 243.685 89.2098 243.565 89.6298 243.325C90.0598 243.075 90.3998 242.72 90.6498 242.26C90.8998 241.79 91.0248 241.24 91.0248 240.61ZM98.5065 244.75L96.5565 241.69L94.6815 244.75H93.2565L95.9115 240.67L93.2565 236.53H94.8015L96.7515 239.575L98.6115 236.53H100.037L97.3965 240.595L100.052 244.75H98.5065Z" fill="#6A6A79"/>
    <path d="M35.3161 235.15V233.905H38.1361V244.75H36.7561V235.15H35.3161ZM40.3158 243.655C41.5858 242.635 42.5808 241.8 43.3008 241.15C44.0208 240.49 44.6258 239.805 45.1158 239.095C45.6158 238.375 45.8658 237.67 45.8658 236.98C45.8658 236.33 45.7058 235.82 45.3858 235.45C45.0758 235.07 44.5708 234.88 43.8708 234.88C43.1908 234.88 42.6608 235.095 42.2808 235.525C41.9108 235.945 41.7108 236.51 41.6808 237.22H40.3608C40.4008 236.1 40.7408 235.235 41.3808 234.625C42.0208 234.015 42.8458 233.71 43.8558 233.71C44.8858 233.71 45.7008 233.995 46.3008 234.565C46.9108 235.135 47.2158 235.92 47.2158 236.92C47.2158 237.75 46.9658 238.56 46.4658 239.35C45.9758 240.13 45.4158 240.82 44.7858 241.42C44.1558 242.01 43.3508 242.7 42.3708 243.49H47.5308V244.63H40.3158V243.655ZM50.6987 238.045C50.9687 237.575 51.3687 237.185 51.8987 236.875C52.4387 236.555 53.0637 236.395 53.7737 236.395C54.5037 236.395 55.1637 236.57 55.7537 236.92C56.3537 237.27 56.8237 237.765 57.1637 238.405C57.5037 239.035 57.6737 239.77 57.6737 240.61C57.6737 241.44 57.5037 242.18 57.1637 242.83C56.8237 243.48 56.3537 243.985 55.7537 244.345C55.1637 244.705 54.5037 244.885 53.7737 244.885C53.0737 244.885 52.4537 244.73 51.9137 244.42C51.3837 244.1 50.9787 243.705 50.6987 243.235V248.65H49.3337V236.53H50.6987V238.045ZM56.2787 240.61C56.2787 239.99 56.1537 239.45 55.9037 238.99C55.6537 238.53 55.3137 238.18 54.8837 237.94C54.4637 237.7 53.9987 237.58 53.4887 237.58C52.9887 237.58 52.5237 237.705 52.0937 237.955C51.6737 238.195 51.3337 238.55 51.0737 239.02C50.8237 239.48 50.6987 240.015 50.6987 240.625C50.6987 241.245 50.8237 241.79 51.0737 242.26C51.3337 242.72 51.6737 243.075 52.0937 243.325C52.5237 243.565 52.9887 243.685 53.4887 243.685C53.9987 243.685 54.4637 243.565 54.8837 243.325C55.3137 243.075 55.6537 242.72 55.9037 242.26C56.1537 241.79 56.2787 241.24 56.2787 240.61ZM63.7604 244.75L61.8104 241.69L59.9354 244.75H58.5104L61.1654 240.67L58.5104 236.53H60.0554L62.0054 239.575L63.8654 236.53H65.2904L62.6504 240.595L65.3054 244.75H63.7604Z" fill="#DB1515"/>
    <path d="M104.808 235.15V233.905H107.628V244.75H106.248V235.15H104.808ZM109.808 243.655C111.078 242.635 112.073 241.8 112.793 241.15C113.513 240.49 114.118 239.805 114.608 239.095C115.108 238.375 115.358 237.67 115.358 236.98C115.358 236.33 115.198 235.82 114.878 235.45C114.568 235.07 114.063 234.88 113.363 234.88C112.683 234.88 112.153 235.095 111.773 235.525C111.403 235.945 111.203 236.51 111.173 237.22H109.853C109.893 236.1 110.233 235.235 110.873 234.625C111.513 234.015 112.338 233.71 113.348 233.71C114.378 233.71 115.193 233.995 115.793 234.565C116.403 235.135 116.708 235.92 116.708 236.92C116.708 237.75 116.458 238.56 115.958 239.35C115.468 240.13 114.908 240.82 114.278 241.42C113.648 242.01 112.843 242.7 111.863 243.49H117.023V244.63H109.808V243.655ZM120.191 238.045C120.461 237.575 120.861 237.185 121.391 236.875C121.931 236.555 122.556 236.395 123.266 236.395C123.996 236.395 124.656 236.57 125.246 236.92C125.846 237.27 126.316 237.765 126.656 238.405C126.996 239.035 127.166 239.77 127.166 240.61C127.166 241.44 126.996 242.18 126.656 242.83C126.316 243.48 125.846 243.985 125.246 244.345C124.656 244.705 123.996 244.885 123.266 244.885C122.566 244.885 121.946 244.73 121.406 244.42C120.876 244.1 120.471 243.705 120.191 243.235V248.65H118.826V236.53H120.191V238.045ZM125.771 240.61C125.771 239.99 125.646 239.45 125.396 238.99C125.146 238.53 124.806 238.18 124.376 237.94C123.956 237.7 123.491 237.58 122.981 237.58C122.481 237.58 122.016 237.705 121.586 237.955C121.166 238.195 120.826 238.55 120.566 239.02C120.316 239.48 120.191 240.015 120.191 240.625C120.191 241.245 120.316 241.79 120.566 242.26C120.826 242.72 121.166 243.075 121.586 243.325C122.016 243.565 122.481 243.685 122.981 243.685C123.491 243.685 123.956 243.565 124.376 243.325C124.806 243.075 125.146 242.72 125.396 242.26C125.646 241.79 125.771 241.24 125.771 240.61ZM133.253 244.75L131.303 241.69L129.428 244.75H128.003L130.658 240.67L128.003 236.53H129.548L131.498 239.575L133.358 236.53H134.783L132.143 240.595L134.798 244.75H133.253Z" fill="#FDB614"/>
    <circle cx="480.5" cy="205.25" r="3.5" fill="#007FFF"/>
    <path d="M498.58 202.526H504.334V203.576H498.58V202.526ZM492.714 209.162H505.286V210.212H492.714V209.162ZM497.978 198.2H499.084V209.722H497.978V198.2ZM513.35 209.204H519.468V210.198H513.35V209.204ZM512.902 198.55H519.286V199.544H513.924V210.87H512.902V198.55ZM507.246 204.206H508.128V209.288H507.246V204.206ZM508.184 199.502V201.966H510.914V199.502H508.184ZM507.246 198.578H511.894V202.89H507.246V198.578ZM509.164 202.428H510.116V208.826H509.164V202.428ZM506.462 209.176C507.918 208.882 510.172 208.35 512.3 207.846L512.412 208.798C510.382 209.302 508.226 209.806 506.672 210.184L506.462 209.176ZM509.626 204.92H512.174V205.858H509.626V204.92ZM513.364 201.882H518.684V206.838H513.364V205.858H517.662V202.862H513.364V201.882Z" fill="#6A6A79"/>
    <circle cx="537.5" cy="205.25" r="3.5" fill="#DB1515"/>
    <path d="M549.896 200.608H562.132V201.63H549.896V200.608ZM553.382 209.078H560.424V210.1H553.382V209.078ZM552.752 204.346H561.124V210.828H560.018V205.368H553.788V210.898H552.752V204.346ZM554.754 197.99L555.86 198.2C554.95 202.022 553.34 205.844 550.134 208.112C549.98 207.874 549.658 207.496 549.434 207.286C552.486 205.2 554.012 201.532 554.754 197.99ZM570.35 209.204H576.468V210.198H570.35V209.204ZM569.902 198.55H576.286V199.544H570.924V210.87H569.902V198.55ZM564.246 204.206H565.128V209.288H564.246V204.206ZM565.184 199.502V201.966H567.914V199.502H565.184ZM564.246 198.578H568.894V202.89H564.246V198.578ZM566.164 202.428H567.116V208.826H566.164V202.428ZM563.462 209.176C564.918 208.882 567.172 208.35 569.3 207.846L569.412 208.798C567.382 209.302 565.226 209.806 563.672 210.184L563.462 209.176ZM566.626 204.92H569.174V205.858H566.626V204.92ZM570.364 201.882H575.684V206.838H570.364V205.858H574.662V202.862H570.364V201.882Z" fill="#6A6A79"/>
    <circle cx="594.5" cy="205.25" r="3.5" fill="#6A6A79"/>
    <path d="M606.77 199.026H619.23V200.09H606.77V199.026ZM612.16 199.866H613.266V210.856H612.16V199.866ZM612.776 203.184L613.462 202.372C615.142 203.184 617.354 204.458 618.474 205.298L617.732 206.25C616.654 205.382 614.47 204.052 612.776 203.184ZM627.35 209.204H633.468V210.198H627.35V209.204ZM626.902 198.55H633.286V199.544H627.924V210.87H626.902V198.55ZM621.246 204.206H622.128V209.288H621.246V204.206ZM622.184 199.502V201.966H624.914V199.502H622.184ZM621.246 198.578H625.894V202.89H621.246V198.578ZM623.164 202.428H624.116V208.826H623.164V202.428ZM620.462 209.176C621.918 208.882 624.172 208.35 626.3 207.846L626.412 208.798C624.382 209.302 622.226 209.806 620.672 210.184L620.462 209.176ZM623.626 204.92H626.174V205.858H623.626V204.92ZM627.364 201.882H632.684V206.838H627.364V205.858H631.662V202.862H627.364V201.882Z" fill="#6A6A79"/>
    <circle cx="651.5" cy="205.25" r="3.5" fill="#FDB614"/>
    <path d="M663.938 200.524H676.02V201.546H663.938V200.524ZM667.69 204.234H675.656V205.242H667.69V204.234ZM666.248 209.456H676.272V210.464H666.248V209.456ZM670.84 204.682H671.904V210.03H670.84V204.682ZM668.166 198.004L669.258 198.144C668.502 202.498 667.214 207.16 664.092 210.03C663.938 209.792 663.602 209.414 663.392 209.204C666.318 206.572 667.55 202.05 668.166 198.004ZM684.35 209.204H690.468V210.198H684.35V209.204ZM683.902 198.55H690.286V199.544H684.924V210.87H683.902V198.55ZM678.246 204.206H679.128V209.288H678.246V204.206ZM679.184 199.502V201.966H681.914V199.502H679.184ZM678.246 198.578H682.894V202.89H678.246V198.578ZM680.164 202.428H681.116V208.826H680.164V202.428ZM677.462 209.176C678.918 208.882 681.172 208.35 683.3 207.846L683.412 208.798C681.382 209.302 679.226 209.806 677.672 210.184L677.462 209.176ZM680.626 204.92H683.174V205.858H680.626V204.92ZM684.364 201.882H689.684V206.838H684.364V205.858H688.662V202.862H684.364V201.882Z" fill="#6A6A79"/>
    <path d="M486.52 226.045C486.79 225.575 487.19 225.185 487.72 224.875C488.26 224.555 488.885 224.395 489.595 224.395C490.325 224.395 490.985 224.57 491.575 224.92C492.175 225.27 492.645 225.765 492.985 226.405C493.325 227.035 493.495 227.77 493.495 228.61C493.495 229.44 493.325 230.18 492.985 230.83C492.645 231.48 492.175 231.985 491.575 232.345C490.985 232.705 490.325 232.885 489.595 232.885C488.895 232.885 488.275 232.73 487.735 232.42C487.205 232.1 486.8 231.705 486.52 231.235V236.65H485.155V224.53H486.52V226.045ZM492.1 228.61C492.1 227.99 491.975 227.45 491.725 226.99C491.475 226.53 491.135 226.18 490.705 225.94C490.285 225.7 489.82 225.58 489.31 225.58C488.81 225.58 488.345 225.705 487.915 225.955C487.495 226.195 487.155 226.55 486.895 227.02C486.645 227.48 486.52 228.015 486.52 228.625C486.52 229.245 486.645 229.79 486.895 230.26C487.155 230.72 487.495 231.075 487.915 231.325C488.345 231.565 488.81 231.685 489.31 231.685C489.82 231.685 490.285 231.565 490.705 231.325C491.135 231.075 491.475 230.72 491.725 230.26C491.975 229.79 492.1 229.24 492.1 228.61ZM494.782 228.61C494.782 227.77 494.952 227.035 495.292 226.405C495.632 225.765 496.097 225.27 496.687 224.92C497.287 224.57 497.952 224.395 498.682 224.395C499.402 224.395 500.027 224.55 500.557 224.86C501.087 225.17 501.482 225.56 501.742 226.03V224.53H503.122V232.75H501.742V231.22C501.472 231.7 501.067 232.1 500.527 232.42C499.997 232.73 499.377 232.885 498.667 232.885C497.937 232.885 497.277 232.705 496.687 232.345C496.097 231.985 495.632 231.48 495.292 230.83C494.952 230.18 494.782 229.44 494.782 228.61ZM501.742 228.625C501.742 228.005 501.617 227.465 501.367 227.005C501.117 226.545 500.777 226.195 500.347 225.955C499.927 225.705 499.462 225.58 498.952 225.58C498.442 225.58 497.977 225.7 497.557 225.94C497.137 226.18 496.802 226.53 496.552 226.99C496.302 227.45 496.177 227.99 496.177 228.61C496.177 229.24 496.302 229.79 496.552 230.26C496.802 230.72 497.137 231.075 497.557 231.325C497.977 231.565 498.442 231.685 498.952 231.685C499.462 231.685 499.927 231.565 500.347 231.325C500.777 231.075 501.117 230.72 501.367 230.26C501.617 229.79 501.742 229.245 501.742 228.625ZM504.918 228.61C504.918 227.77 505.088 227.035 505.428 226.405C505.768 225.765 506.233 225.27 506.823 224.92C507.423 224.57 508.093 224.395 508.833 224.395C509.473 224.395 510.068 224.545 510.618 224.845C511.168 225.135 511.588 225.52 511.878 226V221.65H513.258V232.75H511.878V231.205C511.608 231.695 511.208 232.1 510.678 232.42C510.148 232.73 509.528 232.885 508.818 232.885C508.088 232.885 507.423 232.705 506.823 232.345C506.233 231.985 505.768 231.48 505.428 230.83C505.088 230.18 504.918 229.44 504.918 228.61ZM511.878 228.625C511.878 228.005 511.753 227.465 511.503 227.005C511.253 226.545 510.913 226.195 510.483 225.955C510.063 225.705 509.598 225.58 509.088 225.58C508.578 225.58 508.113 225.7 507.693 225.94C507.273 226.18 506.938 226.53 506.688 226.99C506.438 227.45 506.313 227.99 506.313 228.61C506.313 229.24 506.438 229.79 506.688 230.26C506.938 230.72 507.273 231.075 507.693 231.325C508.113 231.565 508.578 231.685 509.088 231.685C509.598 231.685 510.063 231.565 510.483 231.325C510.913 231.075 511.253 230.72 511.503 230.26C511.753 229.79 511.878 229.245 511.878 228.625ZM515.055 228.61C515.055 227.77 515.225 227.035 515.565 226.405C515.905 225.765 516.37 225.27 516.96 224.92C517.56 224.57 518.23 224.395 518.97 224.395C519.61 224.395 520.205 224.545 520.755 224.845C521.305 225.135 521.725 225.52 522.015 226V221.65H523.395V232.75H522.015V231.205C521.745 231.695 521.345 232.1 520.815 232.42C520.285 232.73 519.665 232.885 518.955 232.885C518.225 232.885 517.56 232.705 516.96 232.345C516.37 231.985 515.905 231.48 515.565 230.83C515.225 230.18 515.055 229.44 515.055 228.61ZM522.015 228.625C522.015 228.005 521.89 227.465 521.64 227.005C521.39 226.545 521.05 226.195 520.62 225.955C520.2 225.705 519.735 225.58 519.225 225.58C518.715 225.58 518.25 225.7 517.83 225.94C517.41 226.18 517.075 226.53 516.825 226.99C516.575 227.45 516.45 227.99 516.45 228.61C516.45 229.24 516.575 229.79 516.825 230.26C517.075 230.72 517.41 231.075 517.83 231.325C518.25 231.565 518.715 231.685 519.225 231.685C519.735 231.685 520.2 231.565 520.62 231.325C521.05 231.075 521.39 230.72 521.64 230.26C521.89 229.79 522.015 229.245 522.015 228.625ZM526.407 223.195C526.147 223.195 525.927 223.105 525.747 222.925C525.567 222.745 525.477 222.525 525.477 222.265C525.477 222.005 525.567 221.785 525.747 221.605C525.927 221.425 526.147 221.335 526.407 221.335C526.657 221.335 526.867 221.425 527.037 221.605C527.217 221.785 527.307 222.005 527.307 222.265C527.307 222.525 527.217 222.745 527.037 222.925C526.867 223.105 526.657 223.195 526.407 223.195ZM527.067 224.53V232.75H525.702V224.53H527.067ZM533.398 224.38C534.398 224.38 535.208 224.685 535.828 225.295C536.448 225.895 536.758 226.765 536.758 227.905V232.75H535.408V228.1C535.408 227.28 535.203 226.655 534.793 226.225C534.383 225.785 533.823 225.565 533.113 225.565C532.393 225.565 531.818 225.79 531.388 226.24C530.968 226.69 530.758 227.345 530.758 228.205V232.75H529.393V224.53H530.758V225.7C531.028 225.28 531.393 224.955 531.853 224.725C532.323 224.495 532.838 224.38 533.398 224.38ZM542.378 224.395C543.088 224.395 543.708 224.55 544.238 224.86C544.778 225.17 545.178 225.56 545.438 226.03V224.53H546.818V232.93C546.818 233.68 546.658 234.345 546.338 234.925C546.018 235.515 545.558 235.975 544.958 236.305C544.368 236.635 543.678 236.8 542.888 236.8C541.808 236.8 540.908 236.545 540.188 236.035C539.468 235.525 539.043 234.83 538.913 233.95H540.263C540.413 234.45 540.723 234.85 541.193 235.15C541.663 235.46 542.228 235.615 542.888 235.615C543.638 235.615 544.248 235.38 544.718 234.91C545.198 234.44 545.438 233.78 545.438 232.93V231.205C545.168 231.685 544.768 232.085 544.238 232.405C543.708 232.725 543.088 232.885 542.378 232.885C541.648 232.885 540.983 232.705 540.383 232.345C539.793 231.985 539.328 231.48 538.988 230.83C538.648 230.18 538.478 229.44 538.478 228.61C538.478 227.77 538.648 227.035 538.988 226.405C539.328 225.765 539.793 225.27 540.383 224.92C540.983 224.57 541.648 224.395 542.378 224.395ZM545.438 228.625C545.438 228.005 545.313 227.465 545.063 227.005C544.813 226.545 544.473 226.195 544.043 225.955C543.623 225.705 543.158 225.58 542.648 225.58C542.138 225.58 541.673 225.7 541.253 225.94C540.833 226.18 540.498 226.53 540.248 226.99C539.998 227.45 539.873 227.99 539.873 228.61C539.873 229.24 539.998 229.79 540.248 230.26C540.498 230.72 540.833 231.075 541.253 231.325C541.673 231.565 542.138 231.685 542.648 231.685C543.158 231.685 543.623 231.565 544.043 231.325C544.473 231.075 544.813 230.72 545.063 230.26C545.313 229.79 545.438 229.245 545.438 228.625ZM549.56 232.84C549.3 232.84 549.08 232.75 548.9 232.57C548.72 232.39 548.63 232.17 548.63 231.91C548.63 231.65 548.72 231.43 548.9 231.25C549.08 231.07 549.3 230.98 549.56 230.98C549.81 230.98 550.02 231.07 550.19 231.25C550.37 231.43 550.46 231.65 550.46 231.91C550.46 232.17 550.37 232.39 550.19 232.57C550.02 232.75 549.81 232.84 549.56 232.84ZM549.56 226.42C549.3 226.42 549.08 226.33 548.9 226.15C548.72 225.97 548.63 225.75 548.63 225.49C548.63 225.23 548.72 225.01 548.9 224.83C549.08 224.65 549.3 224.56 549.56 224.56C549.81 224.56 550.02 224.65 550.19 224.83C550.37 225.01 550.46 225.23 550.46 225.49C550.46 225.75 550.37 225.97 550.19 226.15C550.02 226.33 549.81 226.42 549.56 226.42ZM555.732 223.15V221.905H558.552V232.75H557.172V223.15H555.732ZM560.732 231.655C562.002 230.635 562.997 229.8 563.717 229.15C564.437 228.49 565.042 227.805 565.532 227.095C566.032 226.375 566.282 225.67 566.282 224.98C566.282 224.33 566.122 223.82 565.802 223.45C565.492 223.07 564.987 222.88 564.287 222.88C563.607 222.88 563.077 223.095 562.697 223.525C562.327 223.945 562.127 224.51 562.097 225.22H560.777C560.817 224.1 561.157 223.235 561.797 222.625C562.437 222.015 563.262 221.71 564.272 221.71C565.302 221.71 566.117 221.995 566.717 222.565C567.327 223.135 567.632 223.92 567.632 224.92C567.632 225.75 567.382 226.56 566.882 227.35C566.392 228.13 565.832 228.82 565.202 229.42C564.572 230.01 563.767 230.7 562.787 231.49H567.947V232.63H560.732V231.655ZM571.115 226.045C571.385 225.575 571.785 225.185 572.315 224.875C572.855 224.555 573.48 224.395 574.19 224.395C574.92 224.395 575.58 224.57 576.17 224.92C576.77 225.27 577.24 225.765 577.58 226.405C577.92 227.035 578.09 227.77 578.09 228.61C578.09 229.44 577.92 230.18 577.58 230.83C577.24 231.48 576.77 231.985 576.17 232.345C575.58 232.705 574.92 232.885 574.19 232.885C573.49 232.885 572.87 232.73 572.33 232.42C571.8 232.1 571.395 231.705 571.115 231.235V236.65H569.75V224.53H571.115V226.045ZM576.695 228.61C576.695 227.99 576.57 227.45 576.32 226.99C576.07 226.53 575.73 226.18 575.3 225.94C574.88 225.7 574.415 225.58 573.905 225.58C573.405 225.58 572.94 225.705 572.51 225.955C572.09 226.195 571.75 226.55 571.49 227.02C571.24 227.48 571.115 228.015 571.115 228.625C571.115 229.245 571.24 229.79 571.49 230.26C571.75 230.72 572.09 231.075 572.51 231.325C572.94 231.565 573.405 231.685 573.905 231.685C574.415 231.685 574.88 231.565 575.3 231.325C575.73 231.075 576.07 230.72 576.32 230.26C576.57 229.79 576.695 229.24 576.695 228.61ZM584.176 232.75L582.226 229.69L580.351 232.75H578.926L581.581 228.67L578.926 224.53H580.471L582.421 227.575L584.281 224.53H585.706L583.066 228.595L585.721 232.75H584.176ZM590.478 223.15V221.905H593.298V232.75H591.918V223.15H590.478ZM595.478 231.655C596.748 230.635 597.743 229.8 598.463 229.15C599.183 228.49 599.788 227.805 600.278 227.095C600.778 226.375 601.028 225.67 601.028 224.98C601.028 224.33 600.868 223.82 600.548 223.45C600.238 223.07 599.733 222.88 599.033 222.88C598.353 222.88 597.823 223.095 597.443 223.525C597.073 223.945 596.873 224.51 596.843 225.22H595.523C595.563 224.1 595.903 223.235 596.543 222.625C597.183 222.015 598.008 221.71 599.018 221.71C600.048 221.71 600.863 221.995 601.463 222.565C602.073 223.135 602.378 223.92 602.378 224.92C602.378 225.75 602.128 226.56 601.628 227.35C601.138 228.13 600.578 228.82 599.948 229.42C599.318 230.01 598.513 230.7 597.533 231.49H602.693V232.63H595.478V231.655ZM605.861 226.045C606.131 225.575 606.531 225.185 607.061 224.875C607.601 224.555 608.226 224.395 608.936 224.395C609.666 224.395 610.326 224.57 610.916 224.92C611.516 225.27 611.986 225.765 612.326 226.405C612.666 227.035 612.836 227.77 612.836 228.61C612.836 229.44 612.666 230.18 612.326 230.83C611.986 231.48 611.516 231.985 610.916 232.345C610.326 232.705 609.666 232.885 608.936 232.885C608.236 232.885 607.616 232.73 607.076 232.42C606.546 232.1 606.141 231.705 605.861 231.235V236.65H604.496V224.53H605.861V226.045ZM611.441 228.61C611.441 227.99 611.316 227.45 611.066 226.99C610.816 226.53 610.476 226.18 610.046 225.94C609.626 225.7 609.161 225.58 608.651 225.58C608.151 225.58 607.686 225.705 607.256 225.955C606.836 226.195 606.496 226.55 606.236 227.02C605.986 227.48 605.861 228.015 605.861 228.625C605.861 229.245 605.986 229.79 606.236 230.26C606.496 230.72 606.836 231.075 607.256 231.325C607.686 231.565 608.151 231.685 608.651 231.685C609.161 231.685 609.626 231.565 610.046 231.325C610.476 231.075 610.816 230.72 611.066 230.26C611.316 229.79 611.441 229.24 611.441 228.61ZM618.923 232.75L616.973 229.69L615.098 232.75H613.673L616.328 228.67L613.673 224.53H615.218L617.168 227.575L619.028 224.53H620.453L617.813 228.595L620.468 232.75H618.923ZM625.224 223.15V221.905H628.044V232.75H626.664V223.15H625.224ZM630.224 231.655C631.494 230.635 632.489 229.8 633.209 229.15C633.929 228.49 634.534 227.805 635.024 227.095C635.524 226.375 635.774 225.67 635.774 224.98C635.774 224.33 635.614 223.82 635.294 223.45C634.984 223.07 634.479 222.88 633.779 222.88C633.099 222.88 632.569 223.095 632.189 223.525C631.819 223.945 631.619 224.51 631.589 225.22H630.269C630.309 224.1 630.649 223.235 631.289 222.625C631.929 222.015 632.754 221.71 633.764 221.71C634.794 221.71 635.609 221.995 636.209 222.565C636.819 223.135 637.124 223.92 637.124 224.92C637.124 225.75 636.874 226.56 636.374 227.35C635.884 228.13 635.324 228.82 634.694 229.42C634.064 230.01 633.259 230.7 632.279 231.49H637.439V232.63H630.224V231.655ZM640.607 226.045C640.877 225.575 641.277 225.185 641.807 224.875C642.347 224.555 642.972 224.395 643.682 224.395C644.412 224.395 645.072 224.57 645.662 224.92C646.262 225.27 646.732 225.765 647.072 226.405C647.412 227.035 647.582 227.77 647.582 228.61C647.582 229.44 647.412 230.18 647.072 230.83C646.732 231.48 646.262 231.985 645.662 232.345C645.072 232.705 644.412 232.885 643.682 232.885C642.982 232.885 642.362 232.73 641.822 232.42C641.292 232.1 640.887 231.705 640.607 231.235V236.65H639.242V224.53H640.607V226.045ZM646.187 228.61C646.187 227.99 646.062 227.45 645.812 226.99C645.562 226.53 645.222 226.18 644.792 225.94C644.372 225.7 643.907 225.58 643.397 225.58C642.897 225.58 642.432 225.705 642.002 225.955C641.582 226.195 641.242 226.55 640.982 227.02C640.732 227.48 640.607 228.015 640.607 228.625C640.607 229.245 640.732 229.79 640.982 230.26C641.242 230.72 641.582 231.075 642.002 231.325C642.432 231.565 642.897 231.685 643.397 231.685C643.907 231.685 644.372 231.565 644.792 231.325C645.222 231.075 645.562 230.72 645.812 230.26C646.062 229.79 646.187 229.24 646.187 228.61ZM653.669 232.75L651.719 229.69L649.844 232.75H648.419L651.074 228.67L648.419 224.53H649.964L651.914 227.575L653.774 224.53H655.199L652.559 228.595L655.214 232.75H653.669ZM659.97 223.15V221.905H662.79V232.75H661.41V223.15H659.97ZM664.97 231.655C666.24 230.635 667.235 229.8 667.955 229.15C668.675 228.49 669.28 227.805 669.77 227.095C670.27 226.375 670.52 225.67 670.52 224.98C670.52 224.33 670.36 223.82 670.04 223.45C669.73 223.07 669.225 222.88 668.525 222.88C667.845 222.88 667.315 223.095 666.935 223.525C666.565 223.945 666.365 224.51 666.335 225.22H665.015C665.055 224.1 665.395 223.235 666.035 222.625C666.675 222.015 667.5 221.71 668.51 221.71C669.54 221.71 670.355 221.995 670.955 222.565C671.565 223.135 671.87 223.92 671.87 224.92C671.87 225.75 671.62 226.56 671.12 227.35C670.63 228.13 670.07 228.82 669.44 229.42C668.81 230.01 668.005 230.7 667.025 231.49H672.185V232.63H664.97V231.655ZM675.353 226.045C675.623 225.575 676.023 225.185 676.553 224.875C677.093 224.555 677.718 224.395 678.428 224.395C679.158 224.395 679.818 224.57 680.408 224.92C681.008 225.27 681.478 225.765 681.818 226.405C682.158 227.035 682.328 227.77 682.328 228.61C682.328 229.44 682.158 230.18 681.818 230.83C681.478 231.48 681.008 231.985 680.408 232.345C679.818 232.705 679.158 232.885 678.428 232.885C677.728 232.885 677.108 232.73 676.568 232.42C676.038 232.1 675.633 231.705 675.353 231.235V236.65H673.988V224.53H675.353V226.045ZM680.933 228.61C680.933 227.99 680.808 227.45 680.558 226.99C680.308 226.53 679.968 226.18 679.538 225.94C679.118 225.7 678.653 225.58 678.143 225.58C677.643 225.58 677.178 225.705 676.748 225.955C676.328 226.195 675.988 226.55 675.728 227.02C675.478 227.48 675.353 228.015 675.353 228.625C675.353 229.245 675.478 229.79 675.728 230.26C675.988 230.72 676.328 231.075 676.748 231.325C677.178 231.565 677.643 231.685 678.143 231.685C678.653 231.685 679.118 231.565 679.538 231.325C679.968 231.075 680.308 230.72 680.558 230.26C680.808 229.79 680.933 229.24 680.933 228.61ZM688.415 232.75L686.465 229.69L684.59 232.75H683.165L685.82 228.67L683.165 224.53H684.71L686.66 227.575L688.52 224.53H689.945L687.305 228.595L689.96 232.75H688.415Z" fill="#6A6A79" fill-opacity="0.52"/>
</svg>
