<svg width="75" height="75" viewBox="0 0 75 75" fill="none" xmlns="http://www.w3.org/2000/svg">
    <g clip-path="url(#clip0_674_160)">
        <path fill-rule="evenodd" clip-rule="evenodd"
              d="M52.0505 4.8988L-22.0002 78.9494L52.0505 153L126.101 78.9494L52.0505 4.8988ZM120.929 78.9494L52.0505 147.828L-16.8283 78.9494L52.0505 10.0706L120.929 78.9494Z"
              fill="#DBECFE"/>
        <path d="M36.4963 7.16564L34.1435 3L32.0522 7.16564L31.1372 10.5502L31.66 11.7218L30.7451 14.846L29.5687 17.1892L30.4836 19.1419L28.2616 21.485V23.698V25.6507L16.8898 34.3725L19.8961 36.7157L21.2032 37.1062V43.2245L15.9748 47.6505L19.8961 49.9937H47.3452L52.0508 46.9996L46.8224 43.2245V36.7157H48.2602L51.0051 33.8518L40.2869 25.6507V23.698V21.485L38.0648 19.1419L38.8491 17.1892L38.0648 14.846L36.4963 11.7218L37.2806 10.5502L36.4963 7.16564Z"
              fill="url(#paint0_angular_674_160)"/>
        <path d="M47.4162 56.2482V49.9936H20.691V56.7695L15.9748 60.2877L18.9879 63.2847H49.5123L52.5254 60.2877L47.4162 56.2482Z"
              fill="url(#paint1_angular_674_160)"/>
        <path d="M47.4162 69.5394V63.2848H20.691V70.0607L15.9748 73.5789L18.9879 76.5759H49.5123L52.5254 73.5789L47.4162 69.5394Z"
              fill="url(#paint2_angular_674_160)"/>
        <path d="M36.4963 7.16564L34.1435 3L32.0522 7.16564L31.1372 10.5502L31.66 11.7218L30.7451 14.846L29.5687 17.1892L30.4836 19.1419L28.2616 21.485V23.698V25.6507L16.8898 34.3725L19.8961 36.7157L21.2032 37.1062V43.2245L15.9748 47.6505L19.8961 49.9937H47.3452L52.0508 46.9996L46.8224 43.2245V36.7157H48.2602L51.0051 33.8518L40.2869 25.6507V23.698V21.485L38.0648 19.1419L38.8491 17.1892L38.0648 14.846L36.4963 11.7218L37.2806 10.5502L36.4963 7.16564Z"
              fill="url(#paint3_angular_674_160)"/>
        <path d="M47.4162 56.2482V49.9936H20.691V56.7695L15.9748 60.2877L18.9879 63.2847H49.5123L52.5254 60.2877L47.4162 56.2482Z"
              fill="url(#paint4_angular_674_160)"/>
        <path d="M47.4162 69.5394V63.2848H20.691V70.0607L15.9748 73.5789L18.9879 76.5759H49.5123L52.5254 73.5789L47.4162 69.5394Z"
              fill="url(#paint5_angular_674_160)"/>
        <path d="M36.4963 7.16564L34.1435 3L32.0522 7.16564L31.1372 10.5502L31.66 11.7218L30.7451 14.846L29.5687 17.1892L30.4836 19.1419L28.2616 21.485V23.698V25.6507L16.8898 34.3725L19.8961 36.7157L21.2032 37.1062V43.2245L15.9748 47.6505L19.8961 49.9937H47.3452L52.0508 46.9996L46.8224 43.2245V36.7157H48.2602L51.0051 33.8518L40.2869 25.6507V23.698V21.485L38.0648 19.1419L38.8491 17.1892L38.0648 14.846L36.4963 11.7218L37.2806 10.5502L36.4963 7.16564Z"
              fill="url(#paint6_linear_674_160)"/>
        <path d="M47.4162 56.2482V49.9936H20.691V56.7695L15.9748 60.2877L18.9879 63.2847H49.5123L52.5254 60.2877L47.4162 56.2482Z"
              fill="url(#paint7_linear_674_160)"/>
        <path d="M47.4162 69.5394V63.2848H20.691V70.0607L15.9748 73.5789L18.9879 76.5759H49.5123L52.5254 73.5789L47.4162 69.5394Z"
              fill="url(#paint8_linear_674_160)"/>
        <path fill-rule="evenodd" clip-rule="evenodd"
              d="M52.0505 4.8988L-22.0002 78.9494L52.0505 153L126.101 78.9494L52.0505 4.8988ZM120.929 78.9494L52.0505 147.828L-16.8283 78.9494L52.0505 10.0706L120.929 78.9494Z"
              fill="url(#paint9_linear_674_160)"/>
        <path d="M36.4963 7.16564L34.1435 3L32.0522 7.16564L31.1372 10.5502L31.66 11.7218L30.7451 14.846L29.5687 17.1892L30.4836 19.1419L28.2616 21.485V23.698V25.6507L16.8898 34.3725L19.8961 36.7157L21.2032 37.1062V43.2245L15.9748 47.6505L19.8961 49.9937H47.3452L52.0508 46.9996L46.8224 43.2245V36.7157H48.2602L51.0051 33.8518L40.2869 25.6507V23.698V21.485L38.0648 19.1419L38.8491 17.1892L38.0648 14.846L36.4963 11.7218L37.2806 10.5502L36.4963 7.16564Z"
              fill="url(#paint10_linear_674_160)"/>
        <path d="M47.4162 56.2482V49.9936H20.691V56.7695L15.9748 60.2877L18.9879 63.2847H49.5123L52.5254 60.2877L47.4162 56.2482Z"
              fill="url(#paint11_linear_674_160)"/>
        <path d="M47.4162 69.5394V63.2848H20.691V70.0607L15.9748 73.5789L18.9879 76.5759H49.5123L52.5254 73.5789L47.4162 69.5394Z"
              fill="url(#paint12_linear_674_160)"/>
        <path fill-rule="evenodd" clip-rule="evenodd"
              d="M52.0505 4.8988L-22.0002 78.9494L52.0505 153L126.101 78.9494L52.0505 4.8988ZM120.929 78.9494L52.0505 147.828L-16.8283 78.9494L52.0505 10.0706L120.929 78.9494Z"
              fill="#DBECFE"/>
        <path d="M36.4963 7.16564L34.1435 3L32.0522 7.16564L31.1372 10.5502L31.66 11.7218L30.7451 14.846L29.5687 17.1892L30.4836 19.1419L28.2616 21.485V23.698V25.6507L16.8898 34.3725L19.8961 36.7157L21.2032 37.1062V43.2245L15.9748 47.6505L19.8961 49.9937H47.3452L52.0508 46.9996L46.8224 43.2245V36.7157H48.2602L51.0051 33.8518L40.2869 25.6507V23.698V21.485L38.0648 19.1419L38.8491 17.1892L38.0648 14.846L36.4963 11.7218L37.2806 10.5502L36.4963 7.16564Z"
              fill="url(#paint13_angular_674_160)"/>
        <path d="M47.4162 56.2482V49.9936H20.691V56.7695L15.9748 60.2877L18.9879 63.2847H49.5123L52.5254 60.2877L47.4162 56.2482Z"
              fill="url(#paint14_angular_674_160)"/>
        <path d="M47.4162 69.5394V63.2848H20.691V70.0607L15.9748 73.5789L18.9879 76.5759H49.5123L52.5254 73.5789L47.4162 69.5394Z"
              fill="url(#paint15_angular_674_160)"/>
        <path d="M36.4963 7.16564L34.1435 3L32.0522 7.16564L31.1372 10.5502L31.66 11.7218L30.7451 14.846L29.5687 17.1892L30.4836 19.1419L28.2616 21.485V23.698V25.6507L16.8898 34.3725L19.8961 36.7157L21.2032 37.1062V43.2245L15.9748 47.6505L19.8961 49.9937H47.3452L52.0508 46.9996L46.8224 43.2245V36.7157H48.2602L51.0051 33.8518L40.2869 25.6507V23.698V21.485L38.0648 19.1419L38.8491 17.1892L38.0648 14.846L36.4963 11.7218L37.2806 10.5502L36.4963 7.16564Z"
              fill="url(#paint16_angular_674_160)"/>
        <path d="M47.4162 56.2482V49.9936H20.691V56.7695L15.9748 60.2877L18.9879 63.2847H49.5123L52.5254 60.2877L47.4162 56.2482Z"
              fill="url(#paint17_angular_674_160)"/>
        <path d="M47.4162 69.5394V63.2848H20.691V70.0607L15.9748 73.5789L18.9879 76.5759H49.5123L52.5254 73.5789L47.4162 69.5394Z"
              fill="url(#paint18_angular_674_160)"/>
        <path d="M36.4963 7.16564L34.1435 3L32.0522 7.16564L31.1372 10.5502L31.66 11.7218L30.7451 14.846L29.5687 17.1892L30.4836 19.1419L28.2616 21.485V23.698V25.6507L16.8898 34.3725L19.8961 36.7157L21.2032 37.1062V43.2245L15.9748 47.6505L19.8961 49.9937H47.3452L52.0508 46.9996L46.8224 43.2245V36.7157H48.2602L51.0051 33.8518L40.2869 25.6507V23.698V21.485L38.0648 19.1419L38.8491 17.1892L38.0648 14.846L36.4963 11.7218L37.2806 10.5502L36.4963 7.16564Z"
              fill="url(#paint19_linear_674_160)"/>
        <path d="M47.4162 56.2482V49.9936H20.691V56.7695L15.9748 60.2877L18.9879 63.2847H49.5123L52.5254 60.2877L47.4162 56.2482Z"
              fill="url(#paint20_linear_674_160)"/>
        <path d="M47.4162 69.5394V63.2848H20.691V70.0607L15.9748 73.5789L18.9879 76.5759H49.5123L52.5254 73.5789L47.4162 69.5394Z"
              fill="url(#paint21_linear_674_160)"/>
        <path fill-rule="evenodd" clip-rule="evenodd"
              d="M52.0505 4.8988L-22.0002 78.9494L52.0505 153L126.101 78.9494L52.0505 4.8988ZM120.929 78.9494L52.0505 147.828L-16.8283 78.9494L52.0505 10.0706L120.929 78.9494Z"
              fill="url(#paint22_linear_674_160)"/>
        <path d="M36.4963 7.16564L34.1435 3L32.0522 7.16564L31.1372 10.5502L31.66 11.7218L30.7451 14.846L29.5687 17.1892L30.4836 19.1419L28.2616 21.485V23.698V25.6507L16.8898 34.3725L19.8961 36.7157L21.2032 37.1062V43.2245L15.9748 47.6505L19.8961 49.9937H47.3452L52.0508 46.9996L46.8224 43.2245V36.7157H48.2602L51.0051 33.8518L40.2869 25.6507V23.698V21.485L38.0648 19.1419L38.8491 17.1892L38.0648 14.846L36.4963 11.7218L37.2806 10.5502L36.4963 7.16564Z"
              fill="url(#paint23_linear_674_160)"/>
        <path d="M47.4162 56.2482V49.9936H20.691V56.7695L15.9748 60.2877L18.9879 63.2847H49.5123L52.5254 60.2877L47.4162 56.2482Z"
              fill="url(#paint24_linear_674_160)"/>
        <path d="M47.4162 69.5394V63.2848H20.691V70.0607L15.9748 73.5789L18.9879 76.5759H49.5123L52.5254 73.5789L47.4162 69.5394Z"
              fill="url(#paint25_linear_674_160)"/>
    </g>
    <defs>
        <radialGradient id="paint0_angular_674_160" cx="0" cy="0" r="1" gradientUnits="userSpaceOnUse"
                        gradientTransform="translate(34.0128 26.4968) rotate(90) scale(23.4968 18.038)">
            <stop stop-color="#007FFF" stop-opacity="0.49"/>
            <stop offset="0.276042" stop-color="#00F8F8"/>
            <stop offset="0.723958" stop-color="#CAE2E2" stop-opacity="0"/>
            <stop offset="1" stop-color="white"/>
        </radialGradient>
        <radialGradient id="paint1_angular_674_160" cx="0" cy="0" r="1" gradientUnits="userSpaceOnUse"
                        gradientTransform="translate(34.2501 56.6392) rotate(90) scale(6.64557 18.2753)">
            <stop stop-color="#007FFF" stop-opacity="0.49"/>
            <stop offset="0.276042" stop-color="#00F8F8"/>
            <stop offset="0.723958" stop-color="#CAE2E2" stop-opacity="0"/>
            <stop offset="1" stop-color="white"/>
        </radialGradient>
        <radialGradient id="paint2_angular_674_160" cx="0" cy="0" r="1" gradientUnits="userSpaceOnUse"
                        gradientTransform="translate(34.2501 69.9304) rotate(90) scale(6.64557 18.2753)">
            <stop stop-color="#007FFF" stop-opacity="0.49"/>
            <stop offset="0.276042" stop-color="#00F8F8"/>
            <stop offset="0.723958" stop-color="#CAE2E2" stop-opacity="0"/>
            <stop offset="1" stop-color="white"/>
        </radialGradient>
        <radialGradient id="paint3_angular_674_160" cx="0" cy="0" r="1" gradientUnits="userSpaceOnUse"
                        gradientTransform="translate(34.0128 26.4968) rotate(90) scale(23.4968 18.038)">
            <stop stop-color="#007FFF" stop-opacity="0.49"/>
            <stop offset="0.276042" stop-color="#00F8F8"/>
            <stop offset="0.723958" stop-color="#CAE2E2" stop-opacity="0"/>
            <stop offset="1" stop-color="white"/>
        </radialGradient>
        <radialGradient id="paint4_angular_674_160" cx="0" cy="0" r="1" gradientUnits="userSpaceOnUse"
                        gradientTransform="translate(34.2501 56.6392) rotate(90) scale(6.64557 18.2753)">
            <stop stop-color="#007FFF" stop-opacity="0.49"/>
            <stop offset="0.276042" stop-color="#00F8F8"/>
            <stop offset="0.723958" stop-color="#CAE2E2" stop-opacity="0"/>
            <stop offset="1" stop-color="white"/>
        </radialGradient>
        <radialGradient id="paint5_angular_674_160" cx="0" cy="0" r="1" gradientUnits="userSpaceOnUse"
                        gradientTransform="translate(34.2501 69.9304) rotate(90) scale(6.64557 18.2753)">
            <stop stop-color="#007FFF" stop-opacity="0.49"/>
            <stop offset="0.276042" stop-color="#00F8F8"/>
            <stop offset="0.723958" stop-color="#CAE2E2" stop-opacity="0"/>
            <stop offset="1" stop-color="white"/>
        </radialGradient>
        <linearGradient id="paint6_linear_674_160" x1="34.0128" y1="3" x2="34.0128" y2="49.9937"
                        gradientUnits="userSpaceOnUse">
            <stop stop-color="#007FFF" stop-opacity="0.49"/>
            <stop offset="1" stop-color="#00F8F8" stop-opacity="0"/>
        </linearGradient>
        <linearGradient id="paint7_linear_674_160" x1="34.2501" y1="49.9936" x2="34.2501" y2="63.2847"
                        gradientUnits="userSpaceOnUse">
            <stop stop-color="#007FFF" stop-opacity="0.49"/>
            <stop offset="1" stop-color="#00F8F8" stop-opacity="0"/>
        </linearGradient>
        <linearGradient id="paint8_linear_674_160" x1="34.2501" y1="63.2848" x2="34.2501" y2="76.5759"
                        gradientUnits="userSpaceOnUse">
            <stop stop-color="#007FFF" stop-opacity="0.49"/>
            <stop offset="1" stop-color="#00F8F8" stop-opacity="0"/>
        </linearGradient>
        <linearGradient id="paint9_linear_674_160" x1="52.0505" y1="4.8988" x2="52.0505" y2="153"
                        gradientUnits="userSpaceOnUse">
            <stop stop-color="#007FFF" stop-opacity="0.49"/>
            <stop offset="1" stop-color="#00F8F8" stop-opacity="0"/>
        </linearGradient>
        <linearGradient id="paint10_linear_674_160" x1="34.0128" y1="3" x2="34.0128" y2="49.9937"
                        gradientUnits="userSpaceOnUse">
            <stop stop-color="#007FFF" stop-opacity="0.49"/>
            <stop offset="1" stop-color="#00F8F8" stop-opacity="0"/>
        </linearGradient>
        <linearGradient id="paint11_linear_674_160" x1="34.2501" y1="49.9936" x2="34.2501" y2="63.2847"
                        gradientUnits="userSpaceOnUse">
            <stop stop-color="#007FFF" stop-opacity="0.49"/>
            <stop offset="1" stop-color="#00F8F8" stop-opacity="0"/>
        </linearGradient>
        <linearGradient id="paint12_linear_674_160" x1="34.2501" y1="63.2848" x2="34.2501" y2="76.5759"
                        gradientUnits="userSpaceOnUse">
            <stop stop-color="#007FFF" stop-opacity="0.49"/>
            <stop offset="1" stop-color="#00F8F8" stop-opacity="0"/>
        </linearGradient>
        <radialGradient id="paint13_angular_674_160" cx="0" cy="0" r="1" gradientUnits="userSpaceOnUse"
                        gradientTransform="translate(34.0128 26.4968) rotate(90) scale(23.4968 18.038)">
            <stop stop-color="#007FFF" stop-opacity="0.49"/>
            <stop offset="0.276042" stop-color="#00F8F8"/>
            <stop offset="0.723958" stop-color="#CAE2E2" stop-opacity="0"/>
            <stop offset="1" stop-color="white"/>
        </radialGradient>
        <radialGradient id="paint14_angular_674_160" cx="0" cy="0" r="1" gradientUnits="userSpaceOnUse"
                        gradientTransform="translate(34.2501 56.6392) rotate(90) scale(6.64557 18.2753)">
            <stop stop-color="#007FFF" stop-opacity="0.49"/>
            <stop offset="0.276042" stop-color="#00F8F8"/>
            <stop offset="0.723958" stop-color="#CAE2E2" stop-opacity="0"/>
            <stop offset="1" stop-color="white"/>
        </radialGradient>
        <radialGradient id="paint15_angular_674_160" cx="0" cy="0" r="1" gradientUnits="userSpaceOnUse"
                        gradientTransform="translate(34.2501 69.9304) rotate(90) scale(6.64557 18.2753)">
            <stop stop-color="#007FFF" stop-opacity="0.49"/>
            <stop offset="0.276042" stop-color="#00F8F8"/>
            <stop offset="0.723958" stop-color="#CAE2E2" stop-opacity="0"/>
            <stop offset="1" stop-color="white"/>
        </radialGradient>
        <radialGradient id="paint16_angular_674_160" cx="0" cy="0" r="1" gradientUnits="userSpaceOnUse"
                        gradientTransform="translate(34.0128 26.4968) rotate(90) scale(23.4968 18.038)">
            <stop stop-color="#007FFF" stop-opacity="0.49"/>
            <stop offset="0.276042" stop-color="#00F8F8"/>
            <stop offset="0.723958" stop-color="#CAE2E2" stop-opacity="0"/>
            <stop offset="1" stop-color="white"/>
        </radialGradient>
        <radialGradient id="paint17_angular_674_160" cx="0" cy="0" r="1" gradientUnits="userSpaceOnUse"
                        gradientTransform="translate(34.2501 56.6392) rotate(90) scale(6.64557 18.2753)">
            <stop stop-color="#007FFF" stop-opacity="0.49"/>
            <stop offset="0.276042" stop-color="#00F8F8"/>
            <stop offset="0.723958" stop-color="#CAE2E2" stop-opacity="0"/>
            <stop offset="1" stop-color="white"/>
        </radialGradient>
        <radialGradient id="paint18_angular_674_160" cx="0" cy="0" r="1" gradientUnits="userSpaceOnUse"
                        gradientTransform="translate(34.2501 69.9304) rotate(90) scale(6.64557 18.2753)">
            <stop stop-color="#007FFF" stop-opacity="0.49"/>
            <stop offset="0.276042" stop-color="#00F8F8"/>
            <stop offset="0.723958" stop-color="#CAE2E2" stop-opacity="0"/>
            <stop offset="1" stop-color="white"/>
        </radialGradient>
        <linearGradient id="paint19_linear_674_160" x1="34.0128" y1="3" x2="34.0128" y2="49.9937"
                        gradientUnits="userSpaceOnUse">
            <stop stop-color="#007FFF" stop-opacity="0.49"/>
            <stop offset="1" stop-color="#00F8F8" stop-opacity="0"/>
        </linearGradient>
        <linearGradient id="paint20_linear_674_160" x1="34.2501" y1="49.9936" x2="34.2501" y2="63.2847"
                        gradientUnits="userSpaceOnUse">
            <stop stop-color="#007FFF" stop-opacity="0.49"/>
            <stop offset="1" stop-color="#00F8F8" stop-opacity="0"/>
        </linearGradient>
        <linearGradient id="paint21_linear_674_160" x1="34.2501" y1="63.2848" x2="34.2501" y2="76.5759"
                        gradientUnits="userSpaceOnUse">
            <stop stop-color="#007FFF" stop-opacity="0.49"/>
            <stop offset="1" stop-color="#00F8F8" stop-opacity="0"/>
        </linearGradient>
        <linearGradient id="paint22_linear_674_160" x1="52.0505" y1="4.8988" x2="52.0505" y2="153"
                        gradientUnits="userSpaceOnUse">
            <stop stop-color="#007FFF" stop-opacity="0.49"/>
            <stop offset="1" stop-color="#00F8F8" stop-opacity="0"/>
        </linearGradient>
        <linearGradient id="paint23_linear_674_160" x1="34.0128" y1="3" x2="34.0128" y2="49.9937"
                        gradientUnits="userSpaceOnUse">
            <stop stop-color="#007FFF" stop-opacity="0.49"/>
            <stop offset="1" stop-color="#00F8F8" stop-opacity="0"/>
        </linearGradient>
        <linearGradient id="paint24_linear_674_160" x1="34.2501" y1="49.9936" x2="34.2501" y2="63.2847"
                        gradientUnits="userSpaceOnUse">
            <stop stop-color="#007FFF" stop-opacity="0.49"/>
            <stop offset="1" stop-color="#00F8F8" stop-opacity="0"/>
        </linearGradient>
        <linearGradient id="paint25_linear_674_160" x1="34.2501" y1="63.2848" x2="34.2501" y2="76.5759"
                        gradientUnits="userSpaceOnUse">
            <stop stop-color="#007FFF" stop-opacity="0.49"/>
            <stop offset="1" stop-color="#00F8F8" stop-opacity="0"/>
        </linearGradient>
        <clipPath id="clip0_674_160">
            <rect width="75" height="75" fill="white"/>
        </clipPath>
    </defs>
</svg>
